<?xml version="1.0" encoding="utf-8"?>
<!-- Generator: Adobe Illustrator 21.0.0, SVG Export Plug-In . SVG Version: 6.00 Build 0)  -->
<svg version="1.1" id="Layer_1" xmlns="http://www.w3.org/2000/svg" xmlns:xlink="http://www.w3.org/1999/xlink" x="0px" y="0px"
	 viewBox="0 0 97.6 126.7" style="enable-background:new 0 0 97.6 126.7;" xml:space="preserve">
<style type="text/css">
	.st0{fill:#FFFFFF;}
</style>
<g>
	<path class="st0" d="M74.1,70.3L64,67.7c4.3-3.8,7.8-9.1,10.1-14.8c3.3-0.7,6.3-3.5,6.8-9.5c0.5-5.7-1.3-8.2-3.6-9.3
		c0-0.7,3.7-19.7-9.9-24.6c-1.5-2.3-12-16.6-30.9-5c-2.8,1.7-7.2,5-9.5,8.4c-3.4,4.3-5.7,10.9-6.1,21.1c-2.5,1-4.5,3.5-4,9.5
		c0.5,6.2,3.7,8.9,7.1,9.5c2.3,5.8,5.7,11,10,14.7l-10.3,2.6C9.8,73.7,0,86.2,0,100.5v17.2c0,4.9,4.1,9,8.9,9h80.2
		c4.9,0,8.5-4.2,8.5-9v-17.2C97.6,86.2,88,73.7,74.1,70.3z M26.3,37c0-1.9,0.1-3.6,0.2-5.2c17.8,0.6,28.4-6.6,34.2-12.9
		c7.5,7.4,10.1,17.5,11,22.3C70,54.4,60.6,68.4,49.1,68.4C36.5,68.5,26.3,51.3,26.3,37z M92.3,117.7c0,1.9-1.3,3.5-3.2,3.5h-7.8
		v-7.3c0-0.7-0.7-1.4-1.5-1.4c-0.7,0-1.4,0.6-1.4,1.4v7.3H60l-7.7-30.8c2.3-0.1,4-2.2,3.4-4.5l-1.5-6.1c-0.4-1.6-1.8-2.7-3.5-2.7
		h-3.5c-1.7,0-3.1,1.1-3.5,2.7L42.3,86c-0.5,2.3,1.1,4.4,3.4,4.4L38,121.2H19.2v-7.3c0-0.7-0.6-1.4-1.3-1.4c-0.8,0-1.3,0.6-1.3,1.4
		v7.3H8.9c-1.9,0-3.4-1.6-3.4-3.5v-17.2c0-11.8,8-22.1,19.6-25l15-3.7c2.8,1.4,5.9,2.1,9.1,2.1c3.1,0,6.1-0.7,8.9-2.1L73,75.5
		c11.5,2.9,19.5,13.2,19.5,25v17.2H92.3z"/>
	<path class="st0" d="M27.6,100c-1.4-1.5-3.9-1.5-5.3,0l-3.7,4c-0.9,1-0.2,2.5,1.1,2.5h10.4c1.3,0,2-1.6,1.1-2.5L27.6,100z"/>
	<path class="st0" d="M47.6,44h2.7c0.5,4.1,3.9,7.2,8.1,7.2c4.5,0,8.1-3.6,8.1-8.1c0-5.2-4.7-5.2-8.1-5.2c-3,0-6.9-0.2-7.9,3.4h-3.1
		c-1-3.6-4.9-3.4-7.9-3.4c-3.4,0-8.1,0-8.1,5.2c0,4.5,3.7,8.1,8.1,8.1C43.7,51.2,47.1,48.1,47.6,44z M58.4,40.6
		c4.5,0,5.4,0.4,5.4,2.5c0,3-2.4,5.4-5.4,5.4S53,46.1,53,43.1C52.9,41,53.9,40.6,58.4,40.6z M34,43.1c0-2.1,0.9-2.5,5.4-2.5
		s5.4,0.4,5.4,2.5c0,3-2.4,5.4-5.4,5.4C36.5,48.5,34,46.1,34,43.1z"/>
</g>
</svg>
