<?xml version="1.0" encoding="utf-8"?>
<!-- Generator: Adobe Illustrator 21.0.0, SVG Export Plug-In . SVG Version: 6.00 Build 0)  -->
<svg version="1.1" id="Layer_1" xmlns="http://www.w3.org/2000/svg" xmlns:xlink="http://www.w3.org/1999/xlink" x="0px" y="0px"
	 viewBox="0 0 97.6 126.7" style="enable-background:new 0 0 97.6 126.7;" xml:space="preserve">
<style type="text/css">
	.st0{fill:#FFFFFF;}
</style>
<g>
	<path class="st0" d="M73.9,73.7l-3.1-0.8l0,0l-6.9,14.4c-0.4,0.8-1.1,1.3-2,1.4s-1.7-0.3-2.2-1.1l-5.6-8.1
		c-0.3-0.4-0.8-0.7-1.3-0.8c-0.5,0-1,0.1-1.4,0.5L50,80.6c-0.3,0.3-0.8,0.5-1.2,0.5c-0.5,0-0.9-0.2-1.3-0.5l-1.4-1.4
		c-0.4-0.4-0.9-0.6-1.4-0.5c-0.5,0-1,0.3-1.3,0.8l-5.5,8.1c-0.5,0.7-1.3,1.1-2.2,1.1c-0.9-0.1-1.6-0.6-2-1.4l-6.9-14.4l0,0l-3.2,0.8
		C10.6,77,1.5,88.6,1.5,102v17.6c0,3.5,2.9,6.3,6.3,6.3h81.9c3.5,0,6.3-2.8,6.3-6.3V102C96,88.6,86.9,77,73.9,73.7z M48.7,120.9
		c-1.5,0-2.7-1.2-2.7-2.7s1.2-2.7,2.7-2.7s2.7,1.2,2.7,2.7C51.4,119.7,50.2,120.9,48.7,120.9z M48.7,108c-1.5,0-2.7-1.2-2.7-2.7
		s1.2-2.7,2.7-2.7s2.7,1.2,2.7,2.7S50.2,108,48.7,108z M48.7,95.1c-1.5,0-2.7-1.2-2.7-2.7s1.2-2.7,2.7-2.7s2.7,1.2,2.7,2.7
		S50.2,95.1,48.7,95.1z"/>
	<path class="st0" d="M19.7,34c-2.4,1.1-4.2,3.7-3.7,9.5c0.5,6.2,3.6,9,7,9.7C27.8,65,37.3,74.7,48.5,74.7S69.2,65.1,74,53.4
		c3.6-0.6,7-3.3,7.5-9.8c0.4-4.9-0.8-7.5-2.6-8.9C83,13.5,68.4,9.3,68.4,9.3S54.7-7.1,30.6,5.7c-4.7,2.5-9.5,7.7-12.7,14.1
		c-0.5,0.9-0.3,2,0.3,2.8c0.6,0.8,1.7,1.2,2.6,1C18.1,29.6,19.7,33.7,19.7,34z M25.2,33.8c18.2-0.1,29.3-7.7,35.4-14.3
		c6.4,6.4,9.7,14.6,11.2,20.4c-1.2,13.9-11.1,29.3-23.3,29.3c-13,0-23.4-17.6-23.4-32.2C25.1,35.9,25.1,34.8,25.2,33.8z"/>
</g>
</svg>
