<?xml version="1.0" encoding="utf-8"?>
<!-- Generator: Adobe Illustrator 21.0.0, SVG Export Plug-In . SVG Version: 6.00 Build 0)  -->
<svg version="1.1" baseProfile="tiny" id="Layer_1" xmlns="http://www.w3.org/2000/svg" xmlns:xlink="http://www.w3.org/1999/xlink"
	 x="0px" y="0px" viewBox="0 0 211 47" xml:space="preserve">
<g>
	<g>
		<path fill="#FFFFFF" d="M38.4,13.5h1.5l2.4,3.7l2.4-3.7h1.5v7.9h-1.4v-5.6l-2.5,3.7h0l-2.5-3.7v5.6h-1.4V13.5z"/>
		<path fill="#FFFFFF" d="M47.8,13.2h1.5v1.3h-1.5V13.2z M47.9,15.4h1.4v5.9h-1.4V15.4z"/>
		<path fill="#FFFFFF" d="M50.8,15.4h1.4v0.9c0.4-0.6,0.9-1,1.9-1c1.3,0,2.1,0.9,2.1,2.3v3.8h-1.4V18c0-0.9-0.5-1.4-1.3-1.4
			c-0.8,0-1.3,0.6-1.3,1.5v3.3h-1.4V15.4z"/>
		<path fill="#FFFFFF" d="M57.6,13.2h1.5v1.3h-1.5V13.2z M57.7,15.4H59v5.9h-1.4V15.4z"/>
		<path fill="#FFFFFF" d="M60.1,20.6l0.6-0.9c0.6,0.5,1.3,0.7,1.9,0.7c0.6,0,0.9-0.2,0.9-0.6v0c0-0.5-0.6-0.6-1.3-0.8
			c-0.9-0.2-1.9-0.6-1.9-1.7v0c0-1.1,0.9-1.8,2.1-1.8c0.7,0,1.6,0.3,2.2,0.7l-0.5,1c-0.6-0.4-1.2-0.6-1.7-0.6
			c-0.5,0-0.8,0.3-0.8,0.6v0c0,0.4,0.6,0.6,1.3,0.8c0.9,0.3,1.8,0.7,1.8,1.7v0c0,1.3-1,1.9-2.2,1.9C61.8,21.5,60.8,21.1,60.1,20.6z"
			/>
		<path fill="#FFFFFF" d="M66.3,19.7v-3.1h-0.8v-1.2h0.8v-1.6h1.4v1.6h1.6v1.2h-1.6v2.9c0,0.5,0.3,0.8,0.7,0.8
			c0.3,0,0.6-0.1,0.8-0.2v1.1c-0.3,0.2-0.7,0.3-1.2,0.3C67,21.4,66.3,21,66.3,19.7z"/>
		<path fill="#FFFFFF" d="M70,18.4L70,18.4c0-1.7,1.2-3.1,2.9-3.1c1.9,0,2.9,1.5,2.9,3.2c0,0.1,0,0.2,0,0.4h-4.4
			c0.1,1,0.8,1.5,1.7,1.5c0.7,0,1.1-0.2,1.6-0.7l0.8,0.7c-0.6,0.7-1.3,1.1-2.4,1.1C71.4,21.5,70,20.2,70,18.4z M74.4,18
			c-0.1-0.9-0.6-1.6-1.5-1.6c-0.8,0-1.4,0.6-1.5,1.6H74.4z"/>
		<path fill="#FFFFFF" d="M77,15.4h1.4v1.3c0.4-0.9,1.1-1.5,2.1-1.4v1.4h-0.1c-1.2,0-2,0.8-2,2.4v2.3H77V15.4z"/>
		<path fill="#FFFFFF" d="M81.4,13.2h1.5v1.3h-1.5V13.2z M81.5,15.4h1.4v5.9h-1.4V15.4z"/>
		<path fill="#FFFFFF" d="M84,18.4L84,18.4c0-1.7,1.4-3.1,3.2-3.1c1.8,0,3.2,1.4,3.2,3.1v0c0,1.7-1.3,3.1-3.2,3.1
			C85.4,21.5,84,20.1,84,18.4z M89,18.4L89,18.4c0-1.1-0.8-1.9-1.8-1.9c-1.1,0-1.8,0.9-1.8,1.9v0c0,1,0.8,1.9,1.8,1.9
			C88.3,20.3,89,19.4,89,18.4z"/>
		<path fill="#FFFFFF" d="M94.4,18.4L94.4,18.4c0-2,1.3-3.1,2.8-3.1c1,0,1.6,0.5,2,1v-3.2h1.4v8.2h-1.4v-1c-0.4,0.6-1.1,1.1-2,1.1
			C95.8,21.5,94.4,20.4,94.4,18.4z M99.2,18.4L99.2,18.4c0-1.2-0.8-1.9-1.7-1.9c-0.9,0-1.7,0.7-1.7,1.9v0c0,1.1,0.8,1.9,1.7,1.9
			C98.4,20.3,99.2,19.5,99.2,18.4z"/>
		<path fill="#FFFFFF" d="M101.7,18.4L101.7,18.4c0-1.7,1.2-3.1,2.9-3.1c1.9,0,2.8,1.5,2.8,3.2c0,0.1,0,0.2,0,0.4H103
			c0.1,1,0.8,1.5,1.7,1.5c0.7,0,1.1-0.2,1.6-0.7l0.8,0.7c-0.6,0.7-1.3,1.1-2.4,1.1C103,21.5,101.7,20.2,101.7,18.4z M106.1,18
			c-0.1-0.9-0.6-1.6-1.5-1.6c-0.8,0-1.4,0.6-1.5,1.6H106.1z"/>
		<path fill="#FFFFFF" d="M113.8,14.8h-2.5v-1.3h6.4v1.3h-2.5v6.6h-1.4V14.8z"/>
		<path fill="#FFFFFF" d="M118.8,15.4h1.4v1.3c0.4-0.9,1.1-1.5,2.1-1.4v1.4h-0.1c-1.2,0-2,0.8-2,2.4v2.3h-1.4V15.4z"/>
		<path fill="#FFFFFF" d="M126.9,21.3v-0.7c-0.4,0.5-1,0.9-1.9,0.9c-1.1,0-2.1-0.6-2.1-1.8v0c0-1.3,1-1.9,2.4-1.9
			c0.7,0,1.2,0.1,1.6,0.2v-0.1c0-0.8-0.5-1.3-1.5-1.3c-0.7,0-1.2,0.1-1.7,0.4l-0.4-1.1c0.7-0.3,1.3-0.5,2.3-0.5
			c1.8,0,2.6,0.9,2.6,2.5v3.5H126.9z M126.9,18.9c-0.3-0.1-0.8-0.2-1.4-0.2c-0.9,0-1.4,0.4-1.4,0.9v0c0,0.6,0.5,0.9,1.1,0.9
			c0.9,0,1.6-0.5,1.6-1.2V18.9z"/>
		<path fill="#FFFFFF" d="M129.6,15.4h1.4v0.9c0.4-0.6,0.9-1,1.9-1c1.3,0,2.1,0.9,2.1,2.3v3.8h-1.4V18c0-0.9-0.5-1.4-1.3-1.4
			c-0.8,0-1.3,0.6-1.3,1.5v3.3h-1.4V15.4z"/>
		<path fill="#FFFFFF" d="M135.9,20.6l0.6-0.9c0.6,0.5,1.3,0.7,1.9,0.7c0.6,0,0.9-0.2,0.9-0.6v0c0-0.5-0.6-0.6-1.3-0.8
			c-0.9-0.2-1.9-0.6-1.9-1.7v0c0-1.1,0.9-1.8,2.1-1.8c0.7,0,1.6,0.3,2.2,0.7l-0.5,1c-0.6-0.4-1.2-0.6-1.7-0.6
			c-0.5,0-0.8,0.3-0.8,0.6v0c0,0.4,0.6,0.6,1.3,0.8c0.9,0.3,1.8,0.7,1.8,1.7v0c0,1.3-1,1.9-2.2,1.9
			C137.6,21.5,136.6,21.1,135.9,20.6z"/>
		<path fill="#FFFFFF" d="M141.8,15.4h1.4v1c0.4-0.6,1.1-1.1,2-1.1c1.4,0,2.8,1.1,2.8,3.1v0c0,2-1.3,3.1-2.8,3.1c-1,0-1.6-0.5-2-1
			v2.7h-1.4V15.4z M146.5,18.4L146.5,18.4c0-1.2-0.8-1.9-1.7-1.9c-0.9,0-1.7,0.8-1.7,1.9v0c0,1.1,0.8,1.9,1.7,1.9
			C145.8,20.3,146.5,19.6,146.5,18.4z"/>
		<path fill="#FFFFFF" d="M148.8,18.4L148.8,18.4c0-1.7,1.3-3.1,3.2-3.1c1.8,0,3.2,1.4,3.2,3.1v0c0,1.7-1.3,3.1-3.2,3.1
			C150.1,21.5,148.8,20.1,148.8,18.4z M153.7,18.4L153.7,18.4c0-1.1-0.8-1.9-1.8-1.9c-1.1,0-1.8,0.9-1.8,1.9v0c0,1,0.8,1.9,1.8,1.9
			C153,20.3,153.7,19.4,153.7,18.4z"/>
		<path fill="#FFFFFF" d="M156.3,15.4h1.4v1.3c0.4-0.9,1.1-1.5,2.1-1.4v1.4h-0.1c-1.2,0-2,0.8-2,2.4v2.3h-1.4V15.4z"/>
		<path fill="#FFFFFF" d="M161,19.7v-3.1h-0.8v-1.2h0.8v-1.6h1.4v1.6h1.6v1.2h-1.6v2.9c0,0.5,0.3,0.8,0.7,0.8c0.3,0,0.6-0.1,0.8-0.2
			v1.1c-0.3,0.2-0.7,0.3-1.2,0.3C161.7,21.4,161,21,161,19.7z"/>
		<path fill="#FFFFFF" d="M164.8,18.4L164.8,18.4c0-1.7,1.2-3.1,2.9-3.1c1.9,0,2.8,1.5,2.8,3.2c0,0.1,0,0.2,0,0.4h-4.4
			c0.1,1,0.8,1.5,1.7,1.5c0.7,0,1.1-0.2,1.6-0.7l0.8,0.7c-0.6,0.7-1.3,1.1-2.4,1.1C166.1,21.5,164.8,20.2,164.8,18.4z M169.2,18
			c-0.1-0.9-0.6-1.6-1.5-1.6c-0.8,0-1.4,0.6-1.5,1.6H169.2z"/>
	</g>
	<path fill="#FFC113" d="M11,8L8.5,8.4L11,8.7c0,0,0,0,0.1,0.1c0,0,0,0.1,0,0.1c0,0-0.3,0.2-0.8,0.3C10,9.2,9.6,9.3,9.1,9.5
		C8.9,9.5,8.8,9.6,8.6,9.7c0.4-0.1,0.7-0.1,1,0c0,0,0.3,0,0.4,0c0.1,0,0.2,0,0.4,0c0,0,0,0,0,0C10.9,9.3,11.4,9.1,12,9
		c0.1,0,0.1,0,0.2,0c0,0,0.1,0.1,0.1,0.2c0,0,0,0,0,0.1c0.1-0.1,0.3-0.2,0.4-0.2c0.4-0.2,1-0.3,1.6-0.4c0.1,0,0.1,0,0.2,0.1
		c0,0,0.1,0.1,0.1,0.2c0,0,0,0,0,0c0.2-0.1,0.4-0.1,0.6-0.2c0.5-0.1,1-0.1,1.6,0c0.1,0,0.1,0.1,0.1,0.1c0,0,0,0.1,0,0.1
		c0.2,0,0.4,0,0.6,0c0.5,0,1,0.1,1.6,0.3c0.1,0,0.1,0.1,0.1,0.1c0,0,0,0,0,0.1c0.4,0,0.8,0.1,1.2,0.3c0,0,0,0,0.1,0
		c0.2,0,0.6,0.1,1.1,0.1c0.2,0,0.4,0,0.5,0c-0.5-0.1-0.7-0.2-1-0.4c-0.1-0.1-0.2-0.1-0.4-0.2c-0.5-0.2-1-0.3-1-0.3
		c0,0-0.1,0-0.1-0.1c0,0,0-0.1,0.1-0.1l2.5-0.4L19.8,8c0,0,0,0-0.1-0.1c0,0,0-0.1,0-0.1c0,0,0.4-0.2,0.8-0.3c0.2,0,0.6-0.1,1.1-0.3
		C21.8,7.2,22,7.1,22.1,7c-0.4,0.1-0.7,0.1-1.1,0c-0.1,0-0.3,0-0.4,0c-0.5,0-1,0.1-1,0.1c0,0-0.1,0-0.1,0c0,0,0-0.1,0-0.1l2.2-1.3
		l-2.4,0.6c0,0-0.1,0-0.1,0c0,0,0-0.1,0-0.1c0,0,0.2-0.3,0.6-0.6c0.2-0.1,0.5-0.4,0.9-0.7c0.1-0.1,0.3-0.3,0.4-0.4
		c-0.4,0.3-0.6,0.3-1,0.4c-0.1,0-0.3,0.1-0.4,0.1c-0.5,0.2-0.9,0.5-0.9,0.5c0,0-0.1,0-0.1,0c0,0,0-0.1,0-0.1l1.5-2l-2,1.5
		c0,0-0.1,0-0.1,0c0,0,0-0.1,0-0.1c0,0,0.1-0.4,0.4-0.8c0.1-0.2,0.3-0.5,0.5-1c0.1-0.2,0.1-0.3,0.2-0.5c-0.2,0.4-0.5,0.6-0.7,0.8
		c-0.1,0.1-0.2,0.2-0.3,0.3c-0.4,0.4-0.6,0.8-0.6,0.8c0,0-0.1,0-0.1,0c0,0-0.1,0,0-0.1L18,2l-1.3,2.2c0,0-0.1,0-0.1,0
		c0,0-0.1,0-0.1-0.1c0,0-0.1-0.4,0-0.9c0-0.2,0.1-0.6,0.1-1.1c0-0.2,0-0.4,0-0.5c-0.1,0.5-0.2,0.7-0.4,1c-0.1,0.1-0.1,0.2-0.2,0.4
		c-0.2,0.5-0.3,1-0.3,1c0,0,0,0.1-0.1,0.1c0,0-0.1,0-0.1-0.1l-0.4-2.5L15,4C15,4,15,4,15,4c0,0-0.1,0-0.1,0c0,0-0.2-0.4-0.3-0.8
		c0-0.2-0.2-0.6-0.3-1.1c-0.1-0.2-0.1-0.4-0.2-0.5c0.1,0.4,0.1,0.7,0,1.1c0,0.1,0,0.3,0,0.4c0,0.5,0.1,1,0.1,1c0,0,0,0.1,0,0.1
		c0,0-0.1,0-0.1,0L12.7,2l0.6,2.4c0,0,0,0.1,0,0.1c0,0-0.1,0-0.1,0c0,0-0.3-0.2-0.6-0.6C12.5,3.7,12.3,3.4,12,3
		c-0.1-0.1-0.3-0.3-0.4-0.4C11.9,3,11.9,3.3,12,3.6c0,0.1,0.1,0.3,0.1,0.4c0.2,0.5,0.5,0.9,0.5,0.9c0,0,0,0.1,0,0.1c0,0-0.1,0-0.1,0
		l-2-1.5l1.5,2c0,0,0,0.1,0,0.1c0,0,0,0-0.1,0c0,0-0.4-0.1-0.8-0.3c-0.2-0.1-0.6-0.3-1-0.5C10,4.6,9.8,4.6,9.7,4.5
		c0.4,0.2,0.6,0.5,0.8,0.7c0.1,0.1,0.2,0.2,0.3,0.3c0.4,0.4,0.8,0.6,0.8,0.6c0,0,0,0.1,0,0.1c0,0-0.1,0.1-0.1,0L9,5.7L11.2,7
		c0,0,0,0,0,0.1c0,0,0,0.1-0.1,0.1c0,0-0.4,0.1-0.9,0C10.1,7.1,9.6,7,9.2,7C9,7,8.8,7,8.7,7c0.4,0.1,0.7,0.2,1,0.4
		C9.8,7.4,9.9,7.5,10,7.6c0.5,0.2,1,0.3,1,0.3C11,7.9,11,7.9,11,8C11,8,11,8,11,8"/>
	<path fill="#231F20" d="M16.1,6.6c2.1-0.3,2.3,0.3,2.3,0.3s0.1,0.1,0.2,0.1c0,0,0.1,0,0.1-0.2c0,0-0.2-0.7-1.3-0.8
		c0,0-0.6-0.1-1.2,0C16,6,16,6.4,16,6.4C15.9,6.6,16.1,6.6,16.1,6.6"/>
	<path fill="#231F20" d="M14.4,7c-0.3-0.1-0.8-0.1-0.8-0.1c-0.9,0-1.2,0.6-1.2,0.6c-0.1,0.2,0.1,0.2,0.1,0.2
		c0.2,0.1,0.3-0.1,0.3-0.1s0-0.2,0.4-0.3c0,0.1,0,0.1,0,0.2c0,0.3,0.2,0.5,0.5,0.5C13.8,8,14,7.8,14,7.5c0-0.1,0-0.1,0-0.2
		c0.1,0.1,0.3,0.1,0.3,0.3c0,0.1,0.1,0.1,0.3,0.1c0.2,0,0.1-0.1,0.1-0.1C14.7,7.1,14.4,7,14.4,7"/>
	<path fill="#231F20" d="M16.1,7.7c0.2,0,0.3,0,0.3-0.1c0.1-0.2,0.2-0.3,0.3-0.3c0,0.1,0,0.1,0,0.2c0,0.3,0.2,0.5,0.5,0.5
		c0.3,0,0.5-0.2,0.5-0.5c0-0.1,0-0.1,0-0.2C18,7.4,18,7.6,18,7.6s0.1,0.2,0.3,0.1c0,0,0.2,0,0.1-0.2c0,0-0.2-0.6-1.2-0.6
		c0,0-0.6,0-0.8,0.1c0,0-0.3,0.1-0.4,0.6C15.9,7.6,15.9,7.7,16.1,7.7"/>
	<path fill="#231F20" d="M12.1,6.9c0.2,0,0.2-0.1,0.2-0.1s0.2-0.6,2.3-0.3c0,0,0.2,0,0.2-0.1c0,0-0.1-0.4-0.2-0.4
		c-0.6-0.1-1.2,0-1.2,0C12.2,6.1,12,6.8,12,6.8C11.9,6.9,12.1,6.9,12.1,6.9"/>
	<path fill="#0A93D2" d="M15,22.7h-2.5c-0.6,0-0.9-0.2-1-0.4c-0.1-0.2-0.2-0.4-0.3-0.6c0,0,0,0,0-0.1c0-0.2,0-0.5,0-0.8
		c0.3-1.6,1-2.8,1.5-3.4c-0.1,0-0.1,0-0.2-0.1c-0.4-0.2-0.5-0.6-0.4-1c0.1-0.5,0.6-1.1,0.7-1.2c0.9-1,2.2-1.1,2.3-1.1
		c0.2,0,1.9-0.1,2.8,1.7c1.1,2.1,1.4,3.9,1.6,5.3l0,0.1c0,0.3,0,0.5,0,0.6c0,0,0,0,0,0.1c-0.1,0.2-0.2,0.3-0.3,0.4
		c-0.2,0.2-0.6,0.4-1,0.5c-0.2,0-0.3,0-0.4,0c-0.1,0-0.1,0-0.1,0H17c0,0,0,0,0,0c0,0,0,0,0,0h-1.2v3.6H27c0-2.1-0.3-4.1-0.9-6
		c-0.6-1.8-1.4-3.5-2.5-4.9c-1.1-1.4-2.3-2.5-3.7-3.3c-1.4-0.8-2.9-1.2-4.5-1.2c-1.6,0-3.1,0.4-4.5,1.2c-1.4,0.8-2.6,1.9-3.7,3.3
		c-1.1,1.4-1.9,3.1-2.5,4.9c-0.6,1.9-0.9,3.9-0.9,6H15V22.7z"/>
	<path fill="#FFFFFF" d="M3.7,26.2c0,1.6,0.2,3.1,0.5,4.6c5.1-0.6,8.1-1.2,9-1.8c0.6-0.4,1.1-0.7,1.8-0.7v-2.2H3.7z"/>
	<path fill="#FFFFFF" d="M15.7,28.5c0.5,0.1,0.8,0.2,1.2,0.4c0,0,0.1,0,0.1,0c0.6,0,1.2,0.2,2,0.4c0.2,0.1,0.4,0.2,0.7,0.2
		c0.1,0,3.7,1.2,6.8,1.4c0.4-1.5,0.5-3.1,0.5-4.7H15.7V28.5z"/>
	<path fill="#231F20" d="M14.6,8.8L14.6,8.8L14.6,8.8z"/>
	<path fill="#EE4323" d="M11.9,21.9c0,0-0.1-0.1-0.1-0.1c1.1-0.5,1.6-0.6,3.1,0.3h-2.4C12.2,22,12,22,11.9,21.9"/>
	<path fill="#EE4323" d="M17.7,22C17.7,22,17.7,22,17.7,22H17c-0.1,0-0.9,0-1.6-0.5c-1.7-1.1-2.5-1-3.5-0.5c0,0,0-0.1,0-0.1
		c0.3-1.4,0.9-2.4,1.3-3c0.3-0.4,0.6-0.7,0.8-0.8c0.1,0,0.1-0.1,0.1-0.1c0.1-0.1,0.1-0.3,0-0.4c-0.1-0.1-0.3-0.2-0.4-0.1
		c0,0-0.1,0-0.1,0.1c-0.3,0.2-0.5,0.2-0.6,0.1c-0.1-0.1-0.2-0.2-0.1-0.4c0.1-0.3,0.4-0.7,0.6-0.9c0,0,0,0,0,0
		c0.7-0.8,1.9-0.9,1.9-0.9c0,0,0,0,0,0c0,0,0.4,0,0.8,0.1c0.6,0.2,1.1,0.6,1.4,1.2c0.5,1,0.8,1.9,1,2.7c-0.7-0.2-1.2-0.7-1.2-0.7
		c-0.1-0.1-0.3-0.1-0.4,0c-0.1,0.1-0.1,0.3,0,0.4c0,0,0.8,0.7,1.8,0.9c0.1,0.4,0.1,0.8,0.2,1.1c-0.3-0.2-0.7-0.3-1-0.3
		c-0.2-0.1-0.4-0.1-0.5-0.2c-0.7-0.3-1.2-0.7-1.2-0.7c-0.1-0.1-0.3-0.1-0.4,0.1c-0.1,0.1-0.1,0.3,0,0.4c0,0,0.6,0.5,1.4,0.8
		c0.2,0.1,0.4,0.1,0.6,0.2c0.8,0.2,1.2,0.4,1.2,0.8c0,0.1-0.1,0.1-0.1,0.2C18.5,22,17.9,22.1,17.7,22"/>
	<path fill="#231F20" d="M12.3,9.2"/>
	<polygon fill="#231F20" points="12.3,9.2 12.3,9.2 12.3,9.2 	"/>
	<path fill="#FBBB80" d="M14.4,33.8c-0.2-0.2-0.5-0.1-1,0.2c-0.2,0.1-0.5,0.4-0.5,0.7c0,0.1,0.1,0.2,0.1,0.2
		c0.2,0.1,0.5,0.1,0.6,0.1c0.1-0.3,0.4-0.5,0.6-0.7c0.1-0.1,0.2-0.2,0.2-0.3C14.5,33.9,14.5,33.8,14.4,33.8"/>
	<path fill="#FBBB80" d="M14.2,35.1c0.1,0.1,0.2,0.1,0.2,0.1c0.3,0.1,0.7-0.2,0.8-0.3l0,0c0,0,0,0,0,0c0,0,0,0,0,0
		c0.1,0,0.3-0.2,0.3-0.3c0,0,0-0.1-0.1-0.2c0,0-0.2-0.1-0.5,0.1C14.6,34.6,14.3,34.8,14.2,35.1"/>
	<path fill="#FBBB80" d="M11.9,32.9c-0.3,0-0.7,0.2-0.9,0.4c-0.1,0.2-0.1,0.3-0.1,0.3c0,0.1,0.2,0.1,0.3,0.2c0.1,0,0.1,0,0.2,0
		c0.1-0.3,0.3-0.5,0.4-0.7c0.1,0,0.1-0.1,0.2-0.2C12,32.9,11.9,32.9,11.9,32.9C11.9,32.9,11.9,32.9,11.9,32.9"/>
	<path fill="#FBBB80" d="M13.1,33.2c-0.2-0.1-0.5,0-0.9,0.3c-0.2,0.2-0.3,0.4-0.3,0.5c0,0.1,0,0.2,0.3,0.3c0.1,0,0.1,0,0.2,0
		c0.1-0.3,0.3-0.6,0.7-0.9c0.1,0,0.1-0.1,0.2-0.1c0,0,0-0.1,0-0.1C13.3,33.3,13.2,33.2,13.1,33.2"/>
	<path fill="#FBBB80" d="M19.9,33.1c-0.2-0.2-0.8-0.9-1.6-1.4c-0.3-0.2-0.7-0.4-1.1-0.6c-0.4-0.2-0.8-0.2-1.1-0.1c0,0,0,0,0,0
		c-0.1,0-0.2,0.1-0.4,0.2c-0.1,0.1-0.2,0.1-0.3,0.2c-0.4,0.2-0.8,0.4-1.2,0.4c-0.3,0-0.8,0-1-0.3c-0.2-0.2-0.2-0.5-0.1-0.7h0
		c0.1-0.2,0.4-0.4,0.7-0.5c0.1-0.1,0.3-0.1,0.4-0.2c0.2-0.1,0.3-0.2,0.4-0.3c0.1-0.1,0.3-0.2,0.5-0.4c0.1-0.1,0.3-0.2,0.4-0.2
		c-0.1,0-0.3,0-0.5-0.1c-0.6-0.1-1,0.2-1.6,0.6c0,0,0,0,0,0c-0.5,0.3-1.5,0.7-3.1,1c-1.5,0.3-3.5,0.6-6.1,0.9
		c0.1,0.3,0.2,0.6,0.3,0.9c0.3,1,0.7,2,1.2,2.9c0.9-0.4,3.1-1.4,4.9-2.3c0.3-0.3,0.8-0.5,1.2-0.5c0.1,0,0.4,0,0.7,0.3
		c0.3-0.1,0.6-0.1,0.8,0c0.3,0.1,0.4,0.3,0.4,0.5c0,0,0,0,0,0c0.3-0.1,0.7,0,0.9,0.2c0.2,0.2,0.3,0.4,0.3,0.5
		c0.4-0.1,0.6,0.1,0.7,0.2c0.2,0.2,0.3,0.5,0.3,0.6c0,0.1-0.1,0.3-0.2,0.4c0.2,0,0.4,0,0.6-0.1c0.1,0,0.1-0.1,0.2-0.1
		c-0.1-0.2-0.2-0.4-0.4-0.6c-0.1-0.1-0.1-0.3,0-0.4c0.1-0.1,0.3-0.1,0.4,0c0.3,0.4,0.5,0.7,0.6,0.8c0.2,0,0.3,0,0.4-0.1
		c0.1-0.1,0.1-0.2,0.1-0.2c0-0.1-0.1-0.2-0.3-0.5c-0.2-0.2-0.6-0.5-0.7-0.6c-0.1-0.1-0.2-0.3-0.1-0.4c0.1-0.1,0.3-0.2,0.4-0.1
		c0,0,0.5,0.4,0.8,0.7c0.2,0.3,0.3,0.4,0.4,0.6c0.2,0,0.4-0.1,0.5-0.2c0,0,0.1-0.1,0.1-0.2c-0.2-0.3-0.8-1-1.5-1.4
		c-0.1-0.1-0.2-0.2-0.1-0.4c0.1-0.1,0.2-0.2,0.4-0.1c0.8,0.4,1.5,1.2,1.7,1.5c0.2,0,0.3-0.1,0.4-0.1C19.9,33.3,19.9,33.1,19.9,33.1"
		/>
	<path fill="#FBBB80" d="M21.9,30.8c-1.4-0.3-2.3-0.6-2.3-0.6c0,0,0,0,0,0c-0.3-0.1-0.5-0.2-0.7-0.3c-0.7-0.3-1.2-0.4-1.7-0.4
		c-0.1,0-0.1,0-0.2,0l0,0c-0.1,0-0.2,0-0.2,0c-0.5,0-0.8,0-1.1,0.2c-0.2,0.2-0.4,0.3-0.5,0.4c-0.1,0.1-0.3,0.2-0.4,0.3
		c-0.1,0.1-0.3,0.2-0.5,0.3c-0.1,0.1-0.4,0.2-0.4,0.3c0,0,0,0.1,0.1,0.2c0.1,0.1,0.3,0.1,0.6,0.1c0.3,0,0.7-0.1,1-0.3
		c0.1-0.1,0.2-0.1,0.3-0.2c0.2-0.1,0.4-0.2,0.6-0.3c1-0.3,2,0.4,2.6,0.8c0.8,0.5,1.3,1.1,1.6,1.4c0,0,0,0,0,0.1c0,0,0,0,0,0l0,0
		c0.1,0.1,0.3,0.3,0.5,0.5c1.3,1,3.2,1.8,4,2.1c0.5-0.9,0.9-1.9,1.3-3c0.1-0.3,0.2-0.5,0.2-0.8C24.8,31.4,23,31,21.9,30.8"/>
	<path fill="#FFFFFF" d="M20.3,33.5c0,0.1-0.1,0.2-0.2,0.3c-0.2,0.2-0.4,0.3-0.8,0.3c0,0.1-0.1,0.2-0.2,0.3c-0.2,0.2-0.5,0.4-1,0.4
		c0,0.1-0.1,0.2-0.2,0.3c-0.3,0.3-0.6,0.4-1,0.3c-0.1,0.1-0.2,0.2-0.4,0.2c-0.2,0.1-0.5,0.2-0.9,0.1v3c0,0.2-0.2,0.4-0.4,0.4
		c-0.2,0-0.4-0.2-0.4-0.4v-2.9c-0.1,0-0.3,0.1-0.5,0.1c-0.1,0-0.1,0-0.2,0c-0.2,0-0.4-0.2-0.5-0.3c-0.3,0-0.7,0.1-1-0.1
		c-0.1-0.1-0.2-0.2-0.3-0.4c-0.1,0-0.2,0-0.4-0.1c-0.3-0.1-0.6-0.3-0.7-0.6c-0.1,0-0.2,0-0.3,0c-0.3,0-0.6-0.2-0.8-0.5
		c0-0.1,0-0.1-0.1-0.2c-1.6,0.8-3.4,1.6-4.3,2c0.3,0.5,0.7,1.1,1,1.6c1.1,1.4,2.3,2.5,3.7,3.3c0.6,0.4,1.3,0.6,2,0.8
		c0.1-0.1,0.2-0.2,0.3-0.3c0.6-0.4,1.9-0.1,2.2,0c0.3-0.1,1.6-0.4,2.2,0c0.1,0.1,0.2,0.2,0.3,0.3c0.7-0.2,1.4-0.5,2-0.8
		c1.4-0.8,2.6-1.9,3.7-3.3c0.4-0.5,0.7-0.9,1-1.5C23.7,35.4,21.6,34.5,20.3,33.5"/>
	<path fill="#231F20" d="M29.4,29c0,0-0.1-0.1-0.2-0.1c0-0.1,0.1-0.2,0.1-0.3c0.2-0.5,0.3-1,0.3-1.6c0-0.1,0-0.2-0.1-0.2
		c-0.1,0-0.1-0.1-0.2,0c0-0.1,0.1-0.2,0.1-0.3c0.1-0.5,0.2-1.1,0.1-1.7c0-0.1-0.1-0.2-0.1-0.2c-0.1,0-0.1,0-0.2,0
		c0-0.1,0.1-0.2,0.1-0.4c0.1-0.5,0.1-1.1-0.1-1.7c0-0.1-0.1-0.1-0.1-0.2c0,0-0.1,0-0.1,0c0-0.1,0-0.2,0-0.3c0.1-0.5,0-1.1-0.1-1.7
		c0-0.1-0.1-0.1-0.2-0.2c-0.1,0-0.2,0-0.2,0l0,0c0-0.1,0-0.3,0-0.4c0-0.5-0.1-1.1-0.4-1.6c0-0.1-0.1-0.1-0.2-0.1c-0.1,0-0.1,0-0.2,0
		c0-0.1,0-0.2,0-0.4c-0.1-0.5-0.2-1-0.5-1.6c0-0.1-0.1-0.1-0.2-0.1c-0.1,0-0.1,0-0.2,0.1c0-0.1,0-0.2-0.1-0.3
		c-0.1-0.5-0.4-1-0.7-1.5c0-0.1-0.1-0.1-0.2-0.1c-0.1,0-0.2,0-0.2,0.1c0-0.1-0.1-0.3-0.1-0.4c-0.2-0.5-0.5-0.9-0.9-1.4
		c-0.1-0.1-0.1-0.1-0.2-0.1c-0.1,0-0.1,0-0.1,0.1c-0.1-0.1-0.1-0.3-0.2-0.4c-0.3-0.4-0.7-0.8-1.1-1.2c-0.1-0.1-0.2-0.1-0.2,0
		c-0.1,0-0.1,0.1-0.1,0.1c-0.3-0.4-0.8-0.7-1.3-0.9c0.1,0,0.2,0,0.3,0c0.7,0,1.1-0.1,1.2-0.1c0.1,0,0.2-0.2,0.2-0.3
		c0-0.1-0.1-0.3-0.3-0.3c-0.7,0-1-0.2-1.4-0.4c-0.1,0-0.1-0.1-0.2-0.1l1.7-0.3c0.1,0,0.3-0.2,0.3-0.3c0-0.1-0.1-0.3-0.3-0.3
		l-1.7-0.2c0.2-0.1,0.4-0.1,0.7-0.2c0.6-0.2,1-0.5,1-0.6c0.1-0.1,0.1-0.3,0.1-0.4c-0.1-0.1-0.2-0.2-0.4-0.1c-0.7,0.2-1,0.2-1.4,0.2
		c-0.1,0-0.1,0-0.2,0l1.5-0.9c0.1-0.1,0.2-0.2,0.1-0.4c-0.1-0.1-0.2-0.2-0.4-0.2l-1.7,0.4c0.2-0.1,0.4-0.3,0.5-0.4
		c0.5-0.4,0.7-0.9,0.7-0.9c0.1-0.1,0-0.3-0.1-0.4c-0.1-0.1-0.3-0.1-0.4,0c-0.5,0.5-0.8,0.6-1.2,0.7c-0.1,0-0.1,0-0.2,0.1l1-1.4
		c0.1-0.1,0.1-0.3,0-0.4c-0.1-0.1-0.3-0.1-0.4,0l-1.4,1c0.1-0.2,0.2-0.4,0.3-0.6c0.3-0.6,0.3-1.1,0.3-1.1c0-0.2-0.1-0.3-0.2-0.3
		c-0.1,0-0.3,0-0.4,0.2c-0.3,0.7-0.6,0.9-0.9,1.1c-0.1,0-0.1,0.1-0.2,0.1l0.4-1.7c0-0.1,0-0.3-0.2-0.4s-0.3,0-0.4,0.1L17,2.9
		c0-0.2,0-0.4,0.1-0.7C17.1,1.5,17,1,17,1c0-0.1-0.2-0.2-0.3-0.2c-0.2,0-0.3,0.1-0.3,0.3c0,0.7-0.2,1-0.4,1.4c0,0.1-0.1,0.1-0.1,0.2
		l-0.3-1.7c0-0.2-0.2-0.3-0.3-0.3l0,0c-0.2,0-0.3,0.1-0.3,0.3l-0.2,1.7c-0.1-0.2-0.1-0.4-0.2-0.7c-0.2-0.6-0.5-1-0.5-1
		c-0.1-0.1-0.3-0.2-0.4-0.1c-0.1,0.1-0.2,0.2-0.1,0.4c0.3,0.7,0.2,1,0.2,1.4c0,0.1,0,0.2,0,0.2l-0.9-1.5c-0.1-0.1-0.2-0.2-0.4-0.1
		c-0.1,0.1-0.2,0.2-0.2,0.4l0.4,1.7c-0.1-0.2-0.3-0.4-0.4-0.5C11.8,2.2,11.4,2,11.3,2C11.2,1.9,11,2,11,2.1c-0.1,0.1-0.1,0.3,0,0.4
		c0.5,0.5,0.6,0.8,0.7,1.2c0,0.1,0,0.2,0.1,0.2l-1.4-1c-0.1-0.1-0.3-0.1-0.4,0C9.8,3,9.8,3.2,9.9,3.3l1,1.4
		c-0.2-0.1-0.4-0.2-0.6-0.3C9.7,4.1,9.2,4,9.2,4C9.1,4,8.9,4.1,8.9,4.3c0,0.1,0,0.3,0.2,0.4c0.7,0.3,0.9,0.6,1.1,0.9
		c0,0.1,0.1,0.1,0.1,0.2L8.6,5.2c-0.1,0-0.3,0-0.4,0.2c-0.1,0.1,0,0.3,0.1,0.4l1.5,0.9c-0.2,0-0.4-0.1-0.7-0.1C8.5,6.6,8,6.7,8,6.7
		C7.9,6.8,7.8,6.9,7.8,7.1c0,0.2,0.1,0.3,0.3,0.3c0.7,0,1,0.2,1.4,0.4c0.1,0,0.1,0.1,0.2,0.1L7.9,8.1c-0.2,0-0.3,0.2-0.3,0.3
		c0,0.2,0.1,0.3,0.3,0.3l1.7,0.2C9.5,9,9.2,9,9,9.1C8.4,9.3,8,9.7,8,9.7c-0.1,0.1-0.1,0.3-0.1,0.4c0.1,0.1,0.2,0.2,0.4,0.1
		C8.7,10,8.9,10,9.2,10c-0.4,0.3-0.6,0.6-0.8,0.7c-0.1,0.1-0.1,0.2-0.2,0.3c0-0.1-0.1-0.1-0.1-0.1c-0.1,0-0.2,0-0.2,0
		c-0.5,0.4-0.9,0.8-1.1,1.2c-0.1,0.1-0.2,0.3-0.2,0.4c0-0.1-0.1-0.1-0.2-0.1c-0.1,0-0.2,0-0.2,0.1c-0.4,0.4-0.7,0.9-0.9,1.4
		C5.1,14,5.1,14.1,5,14.3c0,0-0.1-0.1-0.2-0.1c-0.1,0-0.2,0-0.2,0.1c-0.4,0.5-0.6,1-0.8,1.5c0,0.1-0.1,0.3-0.1,0.4
		c-0.1-0.1-0.1-0.1-0.2-0.1c-0.1,0-0.2,0.1-0.2,0.1c-0.3,0.5-0.5,1.1-0.5,1.6c0,0.1,0,0.3,0,0.4c-0.1,0-0.1-0.1-0.2,0
		c-0.1,0-0.1,0.1-0.2,0.2c-0.2,0.6-0.3,1.1-0.3,1.6c0,0.1,0,0.3,0,0.4c-0.1,0-0.1,0-0.2,0c-0.1,0-0.1,0.1-0.2,0.2
		c-0.1,0.6-0.2,1.1-0.1,1.7c0,0.1,0,0.2,0,0.3c0,0-0.1,0-0.1,0c-0.1,0-0.1,0.1-0.1,0.2c-0.1,0.6-0.1,1.2-0.1,1.7
		c0,0.1,0,0.3,0.1,0.4c0,0-0.1,0-0.1,0c-0.1,0-0.1,0.1-0.1,0.2c-0.1,0.6-0.1,1.2,0,1.7c0,0.1,0.1,0.2,0.1,0.3c-0.1,0-0.1,0-0.2,0
		c-0.1,0-0.1,0.1-0.1,0.2c0,0.6,0.1,1.2,0.2,1.6c0,0.2,0.1,0.3,0.2,0.4c0,0,0,0,0,0c-0.1,0-0.2,0-0.2,0.1c-0.1,0.1-0.1,0.1-0.1,0.2
		C1.3,30,1.4,30.5,1.7,31c0.1,0.1,0.1,0.2,0.2,0.2c0,0-0.1,0-0.1,0.1c-0.1,0.1-0.1,0.1-0.1,0.2C1.8,32.1,2,32.6,2.3,33
		c0.1,0.1,0.1,0.2,0.2,0.3c-0.1,0-0.1,0-0.2,0.1c0,0.1-0.1,0.1,0,0.2c0.2,0.6,0.5,1.1,0.8,1.5c0.1,0.1,0.1,0.2,0.2,0.2
		c-0.1,0-0.1,0-0.1,0.1c0,0.1,0,0.2,0,0.2c0.3,0.5,0.6,1,1,1.4c0.1,0.1,0.2,0.2,0.2,0.2c-0.1,0-0.1,0.1-0.1,0.1c0,0.1,0,0.2,0,0.2
		c0.3,0.5,0.7,0.9,1.1,1.2c0.1,0.1,0.2,0.2,0.4,0.3c0,0,0,0,0,0c-0.1,0-0.1,0.1-0.2,0.2c0,0.1,0,0.2,0.1,0.2c0.4,0.4,0.9,0.8,1.3,1
		C7.3,40.8,7.6,40.9,8,41c0.3,0.1,0.6,0.1,0.9,0c0,0,0,0,0.1,0c0.7,0.5,1.6,1,2.4,1.3c0.7,0.3,1.4,0.5,2.1,0.7
		c0.1,0,0.3,0.1,0.4,0.1c-0.3-0.1-0.6-0.3-0.8-0.5c0-0.1-0.1-0.1-0.1-0.1c-0.5-0.1-1-0.3-1.5-0.5c-0.8-0.3-1.5-0.8-2.3-1.3
		c0,0,0,0,0,0c0-0.2,0-0.5-0.1-0.7c0.5,0.4,1,0.8,1.5,1c0.7,0.4,1.4,0.7,2.1,0.9c0,0,0-0.1,0-0.1c0-0.1,0.1-0.2,0.1-0.3
		c-0.7-0.2-1.4-0.5-2-0.8c-1.4-0.8-2.6-1.9-3.7-3.3c-0.4-0.5-0.7-1-1-1.6c0.8-0.4,2.7-1.2,4.3-2c0,0.1,0,0.1,0.1,0.2
		c0.1,0.3,0.5,0.4,0.8,0.5c0.1,0,0.2,0,0.3,0c0.1,0.3,0.3,0.5,0.7,0.6c0.1,0,0.3,0.1,0.4,0.1c0.1,0.2,0.2,0.3,0.3,0.4
		c0.3,0.2,0.8,0.2,1,0.1c0.1,0.2,0.3,0.3,0.5,0.3c0.1,0,0.1,0,0.2,0c0.2,0,0.3,0,0.5-0.1v2.9c0,0.2,0.2,0.4,0.4,0.4
		c0.2,0,0.4-0.2,0.4-0.4v-3c0.4,0.1,0.7,0,0.9-0.1c0.2-0.1,0.3-0.2,0.4-0.2c0.4,0.1,0.7,0,1-0.3c0.1-0.1,0.2-0.2,0.2-0.3
		c0.5,0,0.8-0.2,1-0.4c0.1-0.1,0.1-0.2,0.2-0.3c0.3,0,0.6-0.1,0.8-0.3c0.1-0.1,0.2-0.2,0.2-0.3c1.3,1,3.3,1.9,4.2,2.3
		c-0.3,0.5-0.6,1-1,1.5c-1.1,1.4-2.3,2.5-3.7,3.3c-0.6,0.4-1.3,0.6-2,0.8c0.1,0.1,0.1,0.2,0.1,0.3c0,0,0,0.1,0,0.1
		c0.7-0.2,1.5-0.5,2.1-0.9c0.5-0.3,1-0.7,1.5-1.1c-0.1,0.3-0.1,0.5-0.1,0.7c0,0,0,0,0,0c-0.2,0.2-0.8,0.6-1.7,1
		c-0.6,0.3-1.3,0.6-2,0.7c0,0-0.1,0-0.1,0c0,0-0.1,0.1-0.1,0.1c-0.2,0.3-0.5,0.4-0.8,0.5c0.4-0.1,0.7-0.1,1.1-0.2
		c0.7-0.2,1.4-0.5,2.1-0.8c0.9-0.4,1.5-0.9,1.7-1.1c0,0,0,0,0,0c0.3,0.1,0.6,0,0.9,0c0.3-0.1,0.7-0.2,1.1-0.4c0.4-0.2,0.9-0.6,1.3-1
		c0.1-0.1,0.1-0.1,0.1-0.2c0-0.1-0.1-0.1-0.2-0.2c0,0,0,0,0,0c0.1-0.1,0.3-0.2,0.4-0.3c0.4-0.3,0.8-0.7,1.1-1.2c0-0.1,0.1-0.2,0-0.2
		c0-0.1-0.1-0.1-0.1-0.1c0.1-0.1,0.2-0.1,0.2-0.2c0.4-0.4,0.7-0.8,1-1.4c0-0.1,0-0.2,0-0.2c0-0.1-0.1-0.1-0.2-0.1
		c0.1-0.1,0.2-0.2,0.3-0.3c0.3-0.4,0.6-0.9,0.8-1.5c0-0.1,0-0.2,0-0.2c0-0.1-0.1-0.1-0.2-0.1l0,0c0.1-0.1,0.1-0.2,0.2-0.3
		c0.3-0.4,0.5-0.9,0.7-1.5c0-0.1,0-0.2-0.1-0.2c-0.1-0.1-0.1-0.1-0.2-0.1c0.1-0.1,0.1-0.2,0.2-0.3c0.2-0.5,0.4-1,0.5-1.6
		C29.5,29.2,29.5,29.1,29.4,29 M29.2,25.2C29.2,25.2,29.2,25.2,29.2,25.2C29.2,25.2,29.2,25.2,29.2,25.2c0,0.4,0,0.8-0.1,1.2
		c-0.1,0.3-0.2,0.7-0.4,0.9c-0.2,0.3-0.5,0.5-0.5,0.6c0,0,0,0,0,0l0,0c-0.6-0.7-0.6-1.7-0.6-2.2c0,0,0,0,0,0c0,0,0,0,0,0
		c0.3,0.3,0.5,0.8,0.5,0.8c0,0.1,0.1,0.1,0.2,0.1c0.1,0,0.1,0,0.2-0.1C28.6,25.8,28.9,25.4,29.2,25.2 M28.9,23
		C28.9,23,28.9,23,28.9,23C28.9,23,29,23,28.9,23c0.1,0.4,0.1,0.8,0,1.2c-0.1,0.4-0.2,0.7-0.3,1c-0.2,0.3-0.4,0.5-0.5,0.6l0,0l0,0
		c-0.6-0.5-0.8-1.5-0.8-2.1l0,0c0,0,0,0,0,0c0.3,0.3,0.6,0.7,0.6,0.7c0,0.1,0.1,0.1,0.2,0.1c0.1,0,0.1-0.1,0.1-0.1
		C28.4,23.6,28.7,23.2,28.9,23 M28.6,20.9C28.6,20.9,28.6,20.9,28.6,20.9C28.6,20.9,28.6,20.9,28.6,20.9c0.1,0.4,0.1,0.8,0.1,1.2
		c0,0.4-0.1,0.7-0.3,1c-0.2,0.3-0.4,0.6-0.5,0.6c0,0,0,0,0,0l0,0c-0.5-0.4-0.7-1-0.8-1.5C27,22,27,21.8,27,21.6c0,0,0,0,0,0
		c0,0,0,0,0,0c0.4,0.3,0.6,0.7,0.6,0.7c0,0.1,0.1,0.1,0.2,0.1c0.1,0,0.1-0.1,0.1-0.2C28.1,21.6,28.4,21.1,28.6,20.9 M11.8,21.1
		c0,0,0-0.1,0-0.1c0.3-1.4,0.9-2.4,1.3-3c0.3-0.4,0.6-0.7,0.8-0.8c0.1,0,0.1-0.1,0.1-0.1c0.1-0.1,0.1-0.3,0-0.4
		c-0.1-0.1-0.3-0.2-0.4-0.1c0,0-0.1,0-0.1,0.1c-0.3,0.2-0.5,0.2-0.6,0.1c-0.1-0.1-0.2-0.2-0.1-0.4c0.1-0.3,0.4-0.7,0.6-0.9
		c0,0,0,0,0,0c0.7-0.8,1.9-0.9,1.9-0.9c0,0,0,0,0,0c0,0,0.4,0,0.8,0.1c0.6,0.2,1.1,0.6,1.4,1.2c0.5,1,0.8,1.9,1,2.7
		c-0.7-0.2-1.2-0.7-1.2-0.7c-0.1-0.1-0.3-0.1-0.4,0c-0.1,0.1-0.1,0.3,0,0.4c0,0,0.8,0.7,1.8,0.9c0.1,0.4,0.1,0.8,0.2,1.1
		c-0.3-0.2-0.7-0.3-1-0.4c-0.2-0.1-0.4-0.1-0.5-0.2c-0.7-0.3-1.2-0.7-1.2-0.7c-0.1-0.1-0.3-0.1-0.4,0.1c-0.1,0.1-0.1,0.3,0,0.4
		c0,0,0.6,0.5,1.4,0.8c0.2,0.1,0.4,0.1,0.6,0.2c0.8,0.2,1.2,0.4,1.2,0.8c0,0.1-0.1,0.1-0.1,0.2c-0.3,0.3-0.9,0.3-1.1,0.3
		c0,0,0,0,0,0H17c-0.1,0-0.9,0-1.6-0.5C13.6,20.5,12.9,20.6,11.8,21.1 M14.9,22h-2.4c-0.3,0-0.4-0.1-0.5-0.2c0,0-0.1-0.1-0.1-0.1
		C12.9,21.2,13.4,21.1,14.9,22 M15.7,26.2v-3.6H17c0,0,0,0,0,0c0,0,0,0,0,0h0.7c0,0,0,0,0.1,0c0.1,0,0.3,0,0.4,0
		c0.4-0.1,0.8-0.2,1-0.5c0.1-0.1,0.2-0.3,0.3-0.4c0,0,0,0,0-0.1c0-0.2,0.1-0.4,0-0.6l0-0.1c-0.2-1.4-0.5-3.2-1.6-5.3
		c-0.9-1.8-2.6-1.7-2.8-1.7c-0.2,0-1.5,0.1-2.3,1.1c-0.1,0.1-0.6,0.7-0.7,1.2c-0.1,0.4,0.1,0.9,0.4,1c0.1,0,0.1,0.1,0.2,0.1
		c-0.5,0.7-1.2,1.8-1.5,3.4c-0.1,0.3-0.1,0.5,0,0.8c0,0,0,0,0,0.1c0,0.2,0.1,0.5,0.3,0.6c0.2,0.2,0.5,0.4,1,0.4H15v3.6v2.2
		c-0.7,0-1.2,0.2-1.8,0.7c-0.9,0.6-3.9,1.2-9,1.8c-0.4-1.5-0.5-3.1-0.5-4.6c0-2.1,0.3-4.1,0.9-6c0.6-1.8,1.4-3.5,2.5-4.9
		c1.1-1.4,2.3-2.5,3.7-3.3c1.4-0.8,3-1.2,4.5-1.2c1.6,0,3.1,0.4,4.5,1.2c1.4,0.8,2.6,1.9,3.7,3.3c1.1,1.4,1.9,3.1,2.5,4.9
		c0.6,1.9,0.9,3.9,0.9,6c0,1.6-0.2,3.2-0.5,4.7c-3.1-0.2-6.7-1.3-6.8-1.4c-0.3-0.1-0.5-0.2-0.7-0.2c-0.8-0.3-1.3-0.5-2-0.4
		c0,0-0.1,0-0.1,0c-0.4-0.2-0.7-0.3-1.2-0.4V26.2z M20.5,10.1c-0.2,0.1-0.5,0.2-0.8,0.2c-0.2,0-0.4,0.1-0.6,0.1
		c-0.4,0-0.8-0.1-1.1-0.3c0,0,0,0,0,0c0,0,0,0,0,0c0.1-0.1,0.4-0.2,0.7-0.3c0.3-0.1,0.6-0.1,1,0C19.9,9.8,20.2,9.9,20.5,10.1
		C20.5,10.1,20.5,10.1,20.5,10.1C20.5,10.1,20.5,10.1,20.5,10.1 M21,11.3C21,11.3,21,11.3,21,11.3C21,11.3,21,11.4,21,11.3
		c-0.1,0.1-0.3,0.1-0.6,0.1c0,0-0.1,0-0.1,0c-0.5,0-1-0.2-1.5-0.6c0,0,0,0,0,0c0,0,0,0,0,0c0.2-0.1,0.4-0.1,0.7-0.1
		C20,10.7,20.6,10.9,21,11.3 M18.5,9.4c-0.2,0.1-0.6,0.2-1.1,0.3c-0.1,0-0.1,0.1-0.2,0.1c0,0.1,0,0.2,0.1,0.2c0,0,0.4,0.3,0.7,0.7
		c0,0,0,0,0,0c0,0,0,0,0,0l0,0c-0.5,0-1.5-0.2-2.1-1v0c0.1-0.1,0.3-0.3,0.6-0.4C17.1,9.2,17.8,9.2,18.5,9.4
		C18.5,9.4,18.6,9.4,18.5,9.4C18.6,9.4,18.6,9.4,18.5,9.4 M16.3,9c-0.2,0.1-0.5,0.3-1,0.5c-0.1,0-0.1,0.1-0.1,0.2
		c0,0.1,0,0.1,0.1,0.2c0,0,0.5,0.2,0.8,0.5v0c0,0,0,0,0,0c-0.1,0-0.3,0-0.5,0c-0.5,0-1.3-0.1-1.8-0.5c0,0,0,0,0,0
		c0.1-0.1,0.2-0.3,0.5-0.5C14.8,9.1,15.5,8.9,16.3,9C16.3,9,16.3,9,16.3,9C16.3,9,16.3,9,16.3,9 M14,9.1c-0.1,0.2-0.4,0.5-0.9,0.7
		c-0.1,0-0.1,0.1-0.1,0.2c0,0.1,0.1,0.1,0.1,0.2c0,0,0.5,0.1,0.9,0.3l0,0c0,0,0,0,0,0c-0.2,0.1-0.4,0.1-0.6,0.1
		c-0.2,0-0.4,0.1-0.6,0.1c-0.3,0-0.7-0.1-1.1-0.2c0,0,0,0,0,0c0.1-0.1,0.2-0.3,0.4-0.5C12.5,9.4,13.1,9.2,14,9.1C14,9,14,9,14,9.1
		C14,9.1,14,9.1,14,9.1 M11.8,9.4c-0.1,0.2-0.3,0.6-0.8,1c-0.1,0.1-0.1,0.1-0.1,0.2c0,0.1,0.1,0.1,0.2,0.1h0c0,0,0.2,0,0.5,0
		c0.2,0,0.3,0.1,0.5,0.1c0,0,0,0,0,0c0,0,0,0,0,0c-0.2,0.1-0.4,0.2-0.6,0.3c-0.4,0.1-0.8,0.2-1.1,0.2c-0.3,0-0.5,0-0.6-0.1
		c0,0,0,0,0,0C9.8,10.9,10.2,10,11.8,9.4C11.8,9.4,11.8,9.4,11.8,9.4C11.8,9.4,11.8,9.4,11.8,9.4 M27.9,18.8
		C27.9,18.8,27.9,18.8,27.9,18.8L27.9,18.8c0.2,0.4,0.2,0.8,0.2,1.1c0,0.4,0,0.7-0.1,1c-0.1,0.4-0.3,0.6-0.4,0.7h0c0,0,0,0,0,0
		c-0.5-0.3-0.8-0.7-1-1.4c-0.1-0.2-0.1-0.4-0.2-0.6c0,0,0,0,0,0c0,0,0,0,0,0c0.4,0.2,0.7,0.6,0.7,0.6c0,0.1,0.1,0.1,0.2,0.1
		c0.1,0,0.1-0.1,0.1-0.2C27.5,19.5,27.7,19,27.9,18.8 M26.6,18.3c0.1,0,0.1-0.1,0.1-0.2c0-0.6,0.2-1.1,0.3-1.4c0,0,0,0,0,0
		c0,0,0,0,0,0c0.2,0.4,0.3,0.8,0.3,1.1c0.1,0.4,0,0.7,0,1c-0.1,0.4-0.2,0.6-0.3,0.7c0,0,0,0,0,0h0c-0.5-0.2-0.9-0.6-1.2-1.2
		c-0.1-0.2-0.2-0.4-0.2-0.6c0,0,0,0,0,0c0,0,0,0,0,0c0.4,0.2,0.8,0.5,0.8,0.5C26.5,18.3,26.6,18.3,26.6,18.3z M25.7,16.5L25.7,16.5
		c0.1,0,0.1-0.1,0.1-0.2c-0.1-0.6,0-1.1,0.1-1.4c0,0,0,0,0,0c0,0,0,0,0,0c0.2,0.4,0.4,0.7,0.5,1.1c0.1,0.3,0.1,0.7,0.1,1
		c0,0.4-0.2,0.7-0.2,0.7c0,0,0,0,0,0s0,0,0,0c-0.6-0.2-1-0.6-1.4-1.1c-0.1-0.2-0.2-0.4-0.3-0.6c0,0,0,0,0,0c0,0,0,0,0,0
		c0.5,0.1,0.9,0.5,0.9,0.5C25.6,16.5,25.7,16.5,25.7,16.5 M24.4,14.7c0.1,0,0.2,0,0.2,0c0.1,0,0.1-0.1,0.1-0.2
		c-0.2-0.6-0.1-1.1-0.1-1.4c0,0,0,0,0,0c0,0,0,0,0,0c0.3,0.3,0.5,0.6,0.6,1c0.1,0.3,0.2,0.7,0.2,1c0,0.4,0,0.6-0.1,0.8c0,0,0,0,0,0
		l0,0c-0.5-0.1-1-0.4-1.5-0.9c-0.1-0.2-0.3-0.3-0.4-0.5c0,0,0,0,0,0c0,0,0,0,0,0C24,14.4,24.4,14.7,24.4,14.7 M23,13.2
		c0.1,0,0.2,0,0.2,0c0.1-0.1,0.1-0.1,0-0.2c-0.3-0.6-0.3-1.1-0.3-1.4c0,0,0,0,0,0c0,0,0,0,0,0c0.3,0.3,0.6,0.6,0.8,0.8
		c0.2,0.3,0.3,0.6,0.4,0.9c0.1,0.4,0.1,0.7,0.1,0.8c0,0,0,0,0,0c0,0,0,0,0,0c-0.6,0-1.2-0.3-1.5-0.6c-0.2-0.1-0.4-0.3-0.5-0.5
		c0,0,0,0,0,0c0,0,0,0,0,0c0,0,0,0,0.1,0C22.6,13,23,13.2,23,13.2 M22.5,11.8c0.1,0.4,0.2,0.7,0.2,0.9c0,0,0,0,0,0c0,0-0.1,0-0.1,0
		c-0.7,0-1.6-0.5-2.1-0.8l0,0c0,0,0,0,0,0c0.5-0.1,0.9,0,0.9,0c0.1,0,0.2,0,0.2-0.1c0-0.1,0-0.1,0-0.2c-0.3-0.4-0.5-0.8-0.6-1.1
		c0,0,0,0,0,0h0C21.8,10.7,22.3,11.1,22.5,11.8 M8.6,9.7c0.1-0.1,0.3-0.1,0.5-0.2c0.4-0.1,0.9-0.3,1.1-0.3C10.7,9.1,11,8.9,11,8.9
		c0,0,0,0,0-0.1c0,0,0,0-0.1-0.1L8.5,8.4L11,8C11,8,11,8,11,7.9c0,0,0-0.1-0.1-0.1c0,0-0.5-0.1-1-0.3C9.9,7.5,9.8,7.4,9.6,7.4
		C9.4,7.2,9.1,7.1,8.7,7C8.8,7,9,7,9.2,7c0.5,0,0.9,0.1,1.1,0.1c0.5,0.1,0.9,0,0.9,0c0,0,0.1,0,0.1-0.1c0,0,0-0.1,0-0.1L9,5.7
		l2.4,0.6c0,0,0.1,0,0.1,0c0,0,0-0.1,0-0.1c0,0-0.4-0.3-0.8-0.6c-0.1-0.1-0.2-0.2-0.3-0.3C10.3,5,10.1,4.8,9.7,4.5
		c0.1,0,0.3,0.1,0.5,0.2c0.4,0.2,0.8,0.4,1,0.5c0.4,0.3,0.8,0.3,0.8,0.3c0,0,0.1,0,0.1,0c0,0,0-0.1,0-0.1l-1.5-2l2,1.5
		c0,0,0.1,0,0.1,0c0,0,0-0.1,0-0.1c0,0-0.3-0.4-0.5-0.9c-0.1-0.1-0.1-0.3-0.1-0.4c-0.1-0.3-0.2-0.6-0.4-0.9C11.7,2.7,11.8,2.9,12,3
		c0.3,0.3,0.6,0.7,0.7,0.9c0.3,0.4,0.6,0.6,0.6,0.6c0,0,0.1,0,0.1,0c0,0,0,0,0-0.1L12.7,2L14,4.2c0,0,0.1,0,0.1,0c0,0,0.1,0,0-0.1
		c0,0-0.1-0.5-0.1-1c0-0.2,0-0.3,0-0.4c0-0.3,0.1-0.6,0-1.1c0.1,0.1,0.1,0.3,0.2,0.5c0.2,0.4,0.3,0.9,0.3,1.1
		C14.7,3.6,14.9,4,14.9,4c0,0,0,0,0.1,0C15,4,15,4,15,4l0.4-2.5L15.7,4c0,0,0,0.1,0.1,0.1c0,0,0.1,0,0.1-0.1c0,0,0.1-0.5,0.3-1
		c0.1-0.1,0.1-0.3,0.2-0.4c0.2-0.3,0.3-0.5,0.4-1c0,0.2,0,0.3,0,0.5c0,0.5-0.1,0.9-0.1,1.1c-0.1,0.5,0,0.9,0,0.9c0,0,0,0.1,0.1,0.1
		c0,0,0.1,0,0.1,0L18,2l-0.6,2.4c0,0,0,0.1,0,0.1c0,0,0.1,0,0.1,0c0,0,0.2-0.4,0.6-0.8c0.1-0.1,0.2-0.2,0.3-0.3
		c0.3-0.2,0.5-0.4,0.7-0.8C19.1,2.8,19.1,3,19,3.1c-0.2,0.4-0.4,0.8-0.5,1c-0.3,0.4-0.3,0.8-0.4,0.8c0,0,0,0.1,0,0.1
		c0,0,0.1,0,0.1,0l2-1.5l-1.5,2c0,0,0,0.1,0,0.1c0,0,0.1,0,0.1,0c0,0,0.4-0.3,0.9-0.5C19.9,5.1,20,5,20.1,5c0.3-0.1,0.6-0.2,1-0.4
		c-0.1,0.1-0.2,0.2-0.4,0.4c-0.3,0.3-0.7,0.6-0.9,0.7c-0.4,0.3-0.6,0.6-0.6,0.6c0,0,0,0.1,0,0.1c0,0,0,0,0.1,0l2.4-0.6L19.6,7
		c0,0,0,0,0,0.1c0,0,0,0,0.1,0c0,0,0.5-0.1,1-0.1c0.2,0,0.3,0,0.4,0c0.3,0,0.6,0.1,1.1,0c-0.1,0.1-0.3,0.1-0.5,0.2
		c-0.4,0.2-0.9,0.3-1.1,0.3c-0.5,0.1-0.8,0.3-0.8,0.3c0,0,0,0,0,0.1c0,0,0,0.1,0.1,0.1l2.5,0.4l-2.5,0.4c0,0-0.1,0-0.1,0.1
		c0,0,0,0.1,0.1,0.1c0,0,0.5,0.1,1,0.3c0.1,0.1,0.3,0.1,0.4,0.2c0.3,0.2,0.5,0.3,1,0.4c-0.2,0-0.3,0-0.5,0c-0.5,0-0.9-0.1-1.1-0.1
		c0,0,0,0-0.1,0c-0.4-0.2-0.9-0.3-1.2-0.3c0,0,0,0,0-0.1c0-0.1-0.1-0.1-0.1-0.1c-0.5-0.2-0.9-0.3-1.3-0.3c0,0,0,0-0.1,0c0,0,0,0,0,0
		c0,0,0,0-0.1,0c0,0,0,0,0,0c0,0-0.1,0-0.1,0c-0.2,0-0.4,0-0.6,0v0c0,0,0-0.1,0-0.1c0,0,0,0,0,0c0-0.1-0.1-0.1-0.1-0.1
		c0,0-0.1,0-0.1,0c0,0,0,0,0,0c0,0-0.1,0-0.1,0c0,0,0,0,0,0c0,0,0,0-0.1,0c-0.5,0-0.9,0-1.3,0.1c-0.1,0-0.2,0-0.3,0.1c0,0,0,0,0,0
		c0,0,0,0-0.1,0c0,0,0,0,0,0c0,0,0,0-0.1,0c-0.1,0-0.1,0-0.1,0.1v0l0,0c0,0,0,0,0,0l0,0l0,0c0-0.1,0-0.1-0.1-0.2c0,0,0,0,0,0
		c0,0,0,0,0,0c0,0-0.1,0-0.1,0c-0.6,0-1.1,0.2-1.6,0.4c-0.2,0.1-0.3,0.1-0.4,0.2c0,0,0-0.1,0-0.1l0,0l0,0l0,0c0-0.1,0-0.1-0.1-0.2
		c0,0,0,0,0,0c0,0,0,0,0,0c0,0,0,0,0,0h0c0,0-0.1,0-0.1,0c-0.6,0.2-1.1,0.4-1.5,0.7c0,0,0,0,0,0c-0.1,0-0.2,0-0.4,0
		c-0.1,0-0.4,0-0.4,0C9.4,9.6,9.1,9.6,8.6,9.7 M9.6,10.2C9.6,10.2,9.6,10.2,9.6,10.2C9.6,10.2,9.6,10.2,9.6,10.2
		c0,0.3-0.1,0.8-0.5,1.4c0,0.1,0,0.1,0,0.2c0,0.1,0.1,0.1,0.2,0.1c0,0,0.5-0.1,0.9,0l0,0c0,0,0,0,0,0c-0.4,0.3-1.2,0.8-2,0.8
		c0,0-0.1,0-0.1,0c0,0,0,0,0,0C8.1,12.2,8.2,11.2,9.6,10.2 M6.7,13.3c0.1-0.3,0.2-0.6,0.4-0.9c0.2-0.3,0.5-0.6,0.8-0.9c0,0,0,0,0,0
		c0,0,0,0,0,0c0,0.3,0,0.8-0.3,1.4c0,0.1,0,0.1,0,0.2c0,0.1,0.1,0.1,0.2,0.1c0,0,0.4-0.1,0.9-0.2c0,0,0,0,0,0c0,0,0,0,0,0
		c-0.2,0.2-0.4,0.3-0.5,0.5c-0.4,0.3-0.9,0.6-1.4,0.6c0,0,0,0-0.1,0c0,0,0,0,0,0C6.6,14,6.6,13.7,6.7,13.3 M6.2,13
		C6.2,13,6.2,13,6.2,13C6.2,13,6.2,13,6.2,13c0.1,0.3,0.1,0.8-0.1,1.5c0,0.1,0,0.2,0.1,0.2c0.1,0.1,0.1,0.1,0.2,0
		c0,0,0.4-0.3,0.9-0.3c0,0,0,0,0,0c0,0,0,0,0,0c-0.3,0.5-1,1.2-1.9,1.4l0,0c0,0,0,0,0,0C5.3,15.4,5.1,14.4,6.2,13 M4.3,15.9
		c0.1-0.4,0.3-0.7,0.5-1c0,0,0,0,0,0s0,0,0,0c0.1,0.3,0.2,0.8,0.1,1.4c0,0.1,0,0.2,0.1,0.2c0.1,0,0.2,0,0.2,0c0,0,0.4-0.4,0.9-0.4
		c0,0,0,0,0,0c0,0,0,0,0,0c-0.1,0.1-0.2,0.4-0.4,0.6c-0.4,0.5-0.9,0.9-1.4,1l0,0c0,0,0,0,0,0c0-0.1-0.2-0.4-0.2-0.8
		C4.1,16.6,4.2,16.2,4.3,15.9 M3.3,17.8c0.1-0.4,0.2-0.7,0.3-1.1c0,0,0,0,0,0c0,0,0,0,0,0C3.8,17,4,17.5,3.9,18.1
		c0,0.1,0,0.1,0.1,0.2c0.1,0,0.1,0,0.2,0c0,0,0.4-0.3,0.8-0.5c0,0,0,0,0,0c0,0,0,0,0,0c0,0.2-0.1,0.4-0.2,0.5
		c-0.3,0.6-0.7,1-1.3,1.3c0,0,0,0,0,0c0,0,0,0,0,0c-0.1-0.1-0.2-0.4-0.3-0.7C3.2,18.5,3.2,18.2,3.3,17.8 M2.5,19.9
		c0-0.4,0.1-0.7,0.2-1.1c0,0,0,0,0,0c0,0,0,0,0,0c0.2,0.3,0.4,0.7,0.5,1.4c0,0.1,0.1,0.1,0.1,0.2c0.1,0,0.1,0,0.2-0.1
		c0,0,0.3-0.4,0.8-0.6c0,0,0,0,0,0c0,0,0,0,0,0c0,0.2-0.1,0.4-0.1,0.6c-0.2,0.6-0.6,1.1-1.1,1.4c0,0,0,0,0,0c0,0,0,0,0,0
		c-0.1-0.1-0.3-0.3-0.4-0.7C2.6,20.6,2.5,20.3,2.5,19.9 M2.1,20.9L2.1,20.9C2.1,20.9,2.1,20.9,2.1,20.9c0.2,0.3,0.5,0.7,0.7,1.3
		c0,0.1,0.1,0.1,0.1,0.1c0.1,0,0.1,0,0.2-0.1c0,0,0.3-0.4,0.7-0.7c0,0,0,0,0,0c0,0,0,0,0,0c0,0.2,0,0.4-0.1,0.6
		c-0.1,0.6-0.4,1.1-0.9,1.5c0,0,0,0,0,0c0,0,0,0,0,0c-0.1-0.1-0.3-0.3-0.5-0.6c-0.1-0.3-0.2-0.6-0.3-1C2,21.7,2,21.3,2.1,20.9
		 M1.8,23C1.8,23,1.8,23,1.8,23C1.8,23,1.8,23,1.8,23c0.3,0.2,0.6,0.7,0.7,1.3c0,0.1,0.1,0.1,0.2,0.1c0.1,0,0.1,0,0.2-0.1
		c0,0,0.2-0.4,0.6-0.7c0,0,0,0,0,0c0,0,0,0,0,0c0,0.2,0,0.4-0.1,0.6c-0.1,0.7-0.4,1.2-0.8,1.5c0,0,0,0,0,0h0
		c-0.1-0.1-0.3-0.3-0.5-0.6c-0.2-0.3-0.3-0.6-0.3-1C1.7,23.8,1.7,23.4,1.8,23 M1.6,25.2C1.6,25.2,1.6,25.2,1.6,25.2
		C1.6,25.2,1.6,25.2,1.6,25.2c0.1,0,0.1,0.1,0.2,0.1c0.2,0.2,0.5,0.6,0.6,1.1c0,0.1,0.1,0.1,0.2,0.1c0.1,0,0.2-0.1,0.2-0.1
		c0,0,0.1-0.5,0.5-0.8c0,0,0,0,0,0l0,0c0,0.3,0.1,0.6,0,1.1c-0.1,0.5-0.3,0.9-0.6,1.2c0,0,0,0,0,0c0,0,0,0,0,0
		C2.3,27.7,1.5,26.9,1.6,25.2 M1.5,27.4C1.5,27.4,1.5,27.4,1.5,27.4c0.1,0,0.1,0.1,0.2,0.1c0.2,0.2,0.5,0.5,0.8,1
		c0,0.1,0.1,0.1,0.2,0.1h0c0.1,0,0.1,0,0.2-0.1c0,0,0.2-0.5,0.5-0.8h0c0,0,0,0,0,0C3.4,28.1,3.5,29,2.8,30c0,0,0,0,0,0c0,0,0,0,0,0
		C2.4,29.8,1.6,29.1,1.5,27.4C1.5,27.4,1.5,27.4,1.5,27.4 M1.6,29.6L1.6,29.6C1.6,29.6,1.6,29.6,1.6,29.6c0.3,0.1,0.7,0.4,1.1,1
		c0,0.1,0.1,0.1,0.2,0.1c0.1,0,0.1-0.1,0.1-0.1l0,0l0,0c0,0,0.1-0.5,0.4-0.9c0,0,0,0,0,0h0c0.1,0.2,0.2,0.4,0.2,0.6
		c0.1,0.6,0,1.2-0.3,1.8c0,0,0,0,0,0h0c-0.1,0-0.4-0.2-0.7-0.4c-0.2-0.2-0.5-0.5-0.6-0.8C1.9,30.4,1.7,30.1,1.6,29.6 M2.1,31.7
		C2.1,31.7,2.1,31.7,2.1,31.7C2.2,31.7,2.2,31.7,2.1,31.7c0.1,0,0.1,0,0.2,0.1c0.3,0.1,0.6,0.4,1,0.8c0,0,0.1,0.1,0.2,0.1
		c0.1,0,0.1-0.1,0.1-0.1c0,0,0.1-0.5,0.3-0.9l0,0c0,0,0,0,0,0C4.2,32.1,4.4,33,4,33.9c0,0,0,0,0,0h0C3.6,33.8,2.6,33.4,2.1,31.7
		 M3.4,34.8c-0.2-0.3-0.4-0.6-0.6-1c0,0,0,0,0,0h0c0.1,0,0.1,0,0.2,0.1c0.3,0.1,0.7,0.3,1.1,0.7c0.1,0,0.1,0.1,0.2,0
		c0.1,0,0.1-0.1,0.1-0.2c0,0,0-0.5,0.2-0.9c0,0,0,0,0,0c0,0,0,0,0,0c0.1,0.2,0.2,0.4,0.3,0.6c0.2,0.6,0.3,1.2,0.1,1.7c0,0,0,0,0,0
		c0,0,0,0,0,0c-0.1,0-0.4-0.1-0.7-0.3C3.9,35.4,3.6,35.1,3.4,34.8 M3.7,35.8C3.7,35.8,3.7,35.8,3.7,35.8C3.7,35.8,3.7,35.8,3.7,35.8
		c0.3,0,0.8,0.2,1.3,0.6c0.1,0,0.1,0.1,0.2,0c0.1,0,0.1-0.1,0.1-0.2c0,0,0-0.5,0.1-0.9c0,0,0,0,0,0s0,0,0,0c0.1,0.2,0.2,0.4,0.3,0.5
		c0.2,0.4,0.4,1,0.3,1.7c0,0,0,0,0,0l0,0c-0.1,0-0.4,0-0.8-0.2C5,37.2,4.7,37,4.4,36.7C4.2,36.5,3.9,36.2,3.7,35.8 M7.9,39.4
		c0,0-0.2-0.4-0.2-0.9c0,0,0,0,0,0c0,0,0,0,0,0c0.4,0.4,1.1,1.1,1.1,2.1c0,0,0,0,0,0c-0.1,0-0.1,0-0.3,0c-0.1,0-0.3,0-0.4,0
		c-0.6-0.1-1.2-0.5-1.8-1.1c0,0,0,0,0,0c0,0,0,0,0,0c0.3,0,0.9,0,1.5,0.2c0.1,0,0.1,0,0.2,0C7.9,39.6,7.9,39.5,7.9,39.4 M6.2,38.1
		c0.1,0,0.1,0,0.2,0c0.1,0,0.1-0.1,0.1-0.2c0,0-0.1-0.4-0.1-0.9c0,0,0,0,0,0c0,0,0,0,0,0c0.3,0.4,0.9,1.2,0.9,2.1c0,0,0,0,0,0
		c0,0-0.1,0-0.1,0c-0.2,0-0.4,0-0.7-0.1c-0.3-0.1-0.6-0.3-0.9-0.5c-0.3-0.2-0.6-0.5-0.8-0.8c0,0,0,0,0,0c0,0,0,0,0,0
		C5.2,37.7,5.7,37.8,6.2,38.1 M11.4,33.8c0,0-0.1,0-0.2,0c-0.2,0-0.3-0.1-0.3-0.2c0,0-0.1-0.1,0.1-0.3c0.2-0.2,0.6-0.4,0.9-0.4
		c0,0,0,0,0,0c0,0,0.1,0,0.2,0c-0.1,0.1-0.1,0.1-0.2,0.2C11.7,33.3,11.5,33.5,11.4,33.8 M12.4,34.4c-0.1,0-0.1,0-0.2,0
		c-0.3-0.1-0.3-0.3-0.3-0.3c0-0.2,0.1-0.3,0.3-0.5c0.4-0.4,0.7-0.5,0.9-0.3c0.1,0,0.2,0.1,0.2,0.2c0,0,0,0.1,0,0.1
		c-0.1,0-0.1,0.1-0.2,0.1C12.8,33.8,12.5,34.1,12.4,34.4 M13.7,34.9c-0.2,0-0.5,0-0.6-0.1c0,0-0.1-0.1-0.1-0.2
		c0-0.3,0.3-0.5,0.5-0.7c0.5-0.3,0.7-0.4,1-0.2c0.1,0.1,0.1,0.1,0.1,0.2c0,0.1-0.1,0.2-0.2,0.3C14.1,34.4,13.8,34.6,13.7,34.9
		 M15.5,34.6c0,0.1-0.2,0.3-0.3,0.3c0,0,0,0,0,0c0,0,0,0,0,0l0,0c-0.1,0.1-0.5,0.3-0.8,0.3c-0.1,0-0.1,0-0.2-0.1
		c0.1-0.3,0.4-0.5,0.7-0.6c0.4-0.2,0.5-0.1,0.5-0.1C15.5,34.5,15.5,34.6,15.5,34.6 M19.8,33.4c-0.1,0.1-0.2,0.1-0.4,0.1
		c-0.2-0.3-0.9-1.1-1.7-1.5c-0.1-0.1-0.3,0-0.4,0.1c-0.1,0.1,0,0.3,0.1,0.4c0.7,0.4,1.3,1.1,1.5,1.4c0,0.1-0.1,0.1-0.1,0.2
		c-0.1,0.1-0.3,0.2-0.5,0.2c-0.1-0.1-0.2-0.3-0.4-0.6c-0.3-0.3-0.8-0.7-0.8-0.7c-0.1-0.1-0.3-0.1-0.4,0.1c-0.1,0.1-0.1,0.3,0.1,0.4
		c0.1,0.1,0.5,0.4,0.7,0.6c0.2,0.2,0.3,0.4,0.3,0.5c0,0.1-0.1,0.1-0.1,0.2c-0.1,0.1-0.3,0.2-0.4,0.1c-0.1-0.2-0.2-0.5-0.6-0.8
		c-0.1-0.1-0.3-0.1-0.4,0c-0.1,0.1-0.1,0.3,0,0.4c0.2,0.3,0.4,0.5,0.4,0.6c-0.1,0-0.1,0.1-0.2,0.1c-0.2,0.1-0.4,0.1-0.6,0.1
		c0.1-0.1,0.1-0.2,0.2-0.4c0-0.2,0-0.4-0.3-0.6c-0.1-0.1-0.4-0.3-0.7-0.2c0-0.2-0.1-0.3-0.3-0.5c-0.3-0.2-0.6-0.3-0.9-0.2
		c0,0,0,0,0,0c0-0.1-0.2-0.3-0.4-0.5c-0.3-0.1-0.5-0.1-0.8,0c-0.2-0.2-0.6-0.3-0.7-0.3c-0.4-0.1-0.9,0.1-1.2,0.5
		c-1.7,0.9-4,1.9-4.9,2.3c-0.5-0.9-0.9-1.9-1.2-2.9c-0.1-0.3-0.2-0.6-0.3-0.9c2.5-0.3,4.6-0.6,6.1-0.9c1.6-0.3,2.5-0.6,3.1-1
		c0,0,0,0,0,0c0.6-0.4,1-0.6,1.6-0.6c0.2,0,0.3,0,0.5,0.1c-0.1,0-0.3,0.1-0.4,0.2c-0.2,0.2-0.4,0.3-0.5,0.4
		c-0.1,0.1-0.2,0.2-0.4,0.3c-0.1,0.1-0.3,0.2-0.4,0.2c-0.3,0.2-0.6,0.3-0.7,0.5h0c-0.1,0.2-0.1,0.5,0.1,0.7c0.3,0.4,0.7,0.3,1,0.3
		c0.4,0,0.9-0.2,1.2-0.4c0.1-0.1,0.2-0.1,0.3-0.2c0.2-0.1,0.3-0.2,0.4-0.2c0,0,0,0,0,0c0.3-0.1,0.7-0.1,1.1,0.1
		c0.4,0.1,0.7,0.4,1.1,0.6c0.8,0.5,1.4,1.2,1.6,1.4C19.9,33.1,19.9,33.3,19.8,33.4 M20.8,33.1L20.8,33.1c-0.3-0.2-0.4-0.4-0.5-0.5
		l0,0c0,0,0,0,0,0c0,0,0,0,0-0.1c-0.3-0.3-0.8-0.9-1.6-1.4c-0.5-0.4-1.6-1-2.6-0.8c-0.2,0-0.4,0.2-0.6,0.3c-0.1,0.1-0.2,0.1-0.3,0.2
		c-0.3,0.2-0.7,0.3-1,0.3c-0.3,0-0.5,0-0.6-0.1c-0.1-0.1-0.1-0.1-0.1-0.2c0.1-0.1,0.3-0.2,0.4-0.3c0.2-0.1,0.3-0.2,0.5-0.3
		c0.2-0.1,0.3-0.2,0.4-0.3c0.1-0.1,0.3-0.2,0.5-0.4c0.3-0.2,0.6-0.2,1.1-0.2c0.1,0,0.2,0,0.2,0l0,0c0.1,0,0.1,0,0.2,0
		c0.5,0,1,0.1,1.7,0.4c0.2,0.1,0.5,0.2,0.7,0.3h0c0,0,1,0.3,2.4,0.6c1.2,0.3,2.9,0.6,4.5,0.7c-0.1,0.3-0.2,0.5-0.2,0.8
		c-0.3,1.1-0.8,2.1-1.3,3C24,34.9,22.1,34.1,20.8,33.1 M24.6,39.5c-0.8,0.7-1.4,1-1.8,1.1c-0.2,0-0.3,0-0.4,0c-0.1,0-0.2,0-0.3,0
		c0,0,0,0,0,0c0-0.6,0.2-1.1,0.6-1.6c0.1-0.2,0.3-0.3,0.5-0.5c0,0,0,0,0,0c0,0,0,0,0,0c0,0.5-0.2,0.9-0.2,0.9c0,0.1,0,0.1,0,0.2
		c0.1,0.1,0.1,0.1,0.2,0C23.7,39.4,24.2,39.4,24.6,39.5L24.6,39.5C24.6,39.5,24.6,39.5,24.6,39.5 M25.9,37.7
		c-0.2,0.3-0.5,0.6-0.8,0.8c-0.3,0.2-0.6,0.4-0.9,0.5c-0.3,0.1-0.5,0.1-0.7,0.1c0,0-0.1,0-0.1,0c0,0,0,0,0,0c0-0.5,0.1-1.1,0.5-1.6
		c0.1-0.2,0.2-0.3,0.4-0.5c0,0,0,0,0,0c0,0,0,0,0,0c0,0.5-0.1,0.9-0.1,0.9c0,0.1,0,0.2,0.1,0.2c0.1,0,0.1,0,0.2,0
		C25.1,37.8,25.6,37.7,25.9,37.7C25.9,37.7,25.9,37.7,25.9,37.7C25.9,37.7,25.9,37.7,25.9,37.7 M27.1,35.8c-0.2,0.4-0.4,0.7-0.7,0.9
		c-0.3,0.3-0.5,0.5-0.8,0.6c-0.4,0.2-0.7,0.2-0.8,0.2l0,0c0,0,0,0,0,0c-0.1-0.5,0-1.1,0.3-1.7c0.1-0.2,0.2-0.4,0.3-0.5c0,0,0,0,0,0
		c0,0,0,0,0,0c0.1,0.5,0.1,0.9,0,1c0,0.1,0,0.1,0.1,0.2c0.1,0,0.1,0,0.2,0C26.2,36,26.7,35.9,27.1,35.8C27,35.8,27,35.8,27.1,35.8
		C27.1,35.8,27.1,35.8,27.1,35.8 M27.9,33.8c-0.2,0.4-0.4,0.7-0.6,1c-0.2,0.3-0.5,0.5-0.8,0.7c-0.3,0.2-0.6,0.3-0.7,0.3h0
		c0,0,0,0,0,0c-0.2-0.5-0.1-1.1,0.1-1.7c0.1-0.2,0.2-0.4,0.3-0.5c0,0,0,0,0,0c0,0,0,0,0,0c0.1,0.5,0.2,0.9,0.2,0.9
		c0,0.1,0,0.1,0.1,0.2c0.1,0,0.1,0,0.2,0c0.4-0.4,0.8-0.6,1.1-0.7C27.8,33.8,27.9,33.8,27.9,33.8C27.9,33.8,27.9,33.8,27.9,33.8
		C28,33.8,28,33.8,27.9,33.8 M28.6,31.7c-0.1,0.4-0.3,0.8-0.5,1.1c-0.2,0.3-0.4,0.6-0.7,0.8c-0.3,0.2-0.6,0.3-0.7,0.3h0c0,0,0,0,0,0
		c-0.3-0.6-0.2-1.3-0.1-1.7c0.1-0.2,0.1-0.4,0.2-0.6c0,0,0,0,0,0c0,0,0,0,0,0c0.2,0.4,0.3,0.9,0.3,1c0,0.1,0.1,0.1,0.1,0.2
		c0.1,0,0.1,0,0.2-0.1C27.8,32.1,28.3,31.8,28.6,31.7C28.6,31.7,28.6,31.7,28.6,31.7C28.6,31.7,28.6,31.7,28.6,31.7 M28.7,30.7
		c-0.2,0.3-0.4,0.6-0.6,0.8c-0.3,0.3-0.5,0.4-0.7,0.4c0,0,0,0,0,0l0,0c-0.3-0.5-0.4-1.1-0.3-1.7c0-0.2,0.1-0.4,0.1-0.6c0,0,0,0,0,0
		c0,0,0,0,0,0c0.3,0.4,0.4,0.9,0.4,0.9c0,0.1,0.1,0.1,0.2,0.1c0.1,0,0.1,0,0.2-0.1c0.3-0.5,0.8-0.9,1.1-1c0,0,0,0,0,0c0,0,0,0,0,0
		C28.9,30,28.8,30.3,28.7,30.7 M29,28.5c-0.1,0.3-0.3,0.6-0.5,0.9c-0.2,0.3-0.5,0.5-0.6,0.5c0,0,0,0,0,0h0c-0.3-0.5-0.5-1-0.5-1.7
		c0-0.2,0-0.4,0.1-0.6c0,0,0,0,0,0c0,0,0,0,0,0c0.3,0.4,0.5,0.9,0.5,0.9c0,0.1,0.1,0.1,0.2,0.1c0.1,0,0.1,0,0.2-0.1
		c0.3-0.6,0.7-0.9,0.9-1.1c0,0,0,0,0,0c0,0,0,0,0,0C29.2,27.8,29.1,28.2,29,28.5"/>
	<path fill="#2EA249" d="M24.6,39.5c-0.3,0-0.9,0-1.5,0.2c-0.1,0-0.1,0-0.2,0c0-0.1-0.1-0.1,0-0.2c0,0,0.2-0.4,0.2-0.9c0,0,0,0,0,0
		c0,0,0,0,0,0c-0.2,0.1-0.3,0.3-0.5,0.5c-0.4,0.5-0.6,1-0.6,1.6c0,0,0,0,0,0c0.1,0,0.2,0,0.3,0c0.1,0,0.3,0,0.4,0
		C23.1,40.5,23.8,40.2,24.6,39.5C24.6,39.5,24.6,39.5,24.6,39.5L24.6,39.5"/>
	<path fill="#2EA249" d="M7.7,38.5C7.7,38.5,7.7,38.5,7.7,38.5C7.7,38.5,7.7,38.5,7.7,38.5c0,0.5,0.2,0.9,0.2,0.9c0,0.1,0,0.1,0,0.2
		c-0.1,0.1-0.1,0.1-0.2,0c-0.6-0.2-1.1-0.2-1.5-0.2c0,0,0,0,0,0c0,0,0,0,0,0c0.6,0.6,1.2,0.9,1.8,1.1c0.2,0,0.3,0,0.4,0
		c0.1,0,0.2,0,0.3,0c0,0,0,0,0,0C8.8,39.6,8.1,38.9,7.7,38.5"/>
	<path fill="#2EA249" d="M25.9,37.7c-0.3,0-0.8,0.1-1.4,0.5c-0.1,0-0.1,0-0.2,0c-0.1,0-0.1-0.1-0.1-0.2c0,0,0.1-0.5,0.1-0.9
		c0,0,0,0,0,0c0,0,0,0,0,0c-0.1,0.2-0.3,0.3-0.4,0.5c-0.4,0.5-0.5,1.1-0.5,1.6c0,0,0,0,0,0c0,0,0.1,0,0.1,0c0.2,0,0.4,0,0.7-0.1
		c0.3-0.1,0.6-0.3,0.9-0.5C25.4,38.3,25.7,38,25.9,37.7C25.9,37.7,25.9,37.7,25.9,37.7C25.9,37.7,25.9,37.7,25.9,37.7"/>
	<path fill="#2EA249" d="M27,35.8c-0.3,0.1-0.8,0.2-1.3,0.6c-0.1,0-0.1,0.1-0.2,0c-0.1,0-0.1-0.1-0.1-0.2c0,0,0-0.5,0-0.9
		c0,0,0,0,0,0c0,0,0,0,0,0c-0.1,0.2-0.2,0.4-0.3,0.5c-0.3,0.6-0.4,1.1-0.3,1.7c0,0,0,0,0,0l0,0c0.1,0,0.4,0,0.8-0.2
		c0.3-0.1,0.6-0.3,0.8-0.6C26.6,36.5,26.8,36.2,27,35.8C27.1,35.8,27.1,35.8,27,35.8C27,35.8,27,35.8,27,35.8"/>
	<path fill="#2EA249" d="M27.9,33.8c-0.1,0-0.1,0-0.2,0.1c-0.3,0.1-0.7,0.3-1.1,0.7c-0.1,0.1-0.1,0.1-0.2,0c-0.1,0-0.1-0.1-0.1-0.2
		c0,0,0-0.5-0.2-0.9c0,0,0,0,0,0c0,0,0,0,0,0c-0.1,0.2-0.2,0.4-0.3,0.5c-0.2,0.6-0.3,1.2-0.1,1.7c0,0,0,0,0,0h0
		c0.1,0,0.4-0.1,0.7-0.3c0.3-0.2,0.5-0.4,0.8-0.7C27.6,34.5,27.8,34.2,27.9,33.8C27.9,33.8,28,33.8,27.9,33.8
		C27.9,33.8,27.9,33.8,27.9,33.8"/>
	<path fill="#2EA249" d="M28.6,31.7c-0.3,0.1-0.8,0.4-1.2,0.9c0,0.1-0.1,0.1-0.2,0.1c-0.1,0-0.1-0.1-0.1-0.2c0,0-0.1-0.5-0.3-1
		c0,0,0,0,0,0c0,0,0,0,0,0c-0.1,0.2-0.1,0.4-0.2,0.6c-0.1,0.4-0.2,1.1,0.1,1.7c0,0,0,0,0,0h0c0.1,0,0.4-0.1,0.7-0.3
		c0.3-0.2,0.5-0.4,0.7-0.8C28.3,32.5,28.5,32.1,28.6,31.7C28.6,31.7,28.6,31.7,28.6,31.7C28.6,31.7,28.6,31.7,28.6,31.7"/>
	<path fill="#2EA249" d="M29,29.5c-0.3,0.2-0.7,0.5-1.1,1c0,0.1-0.1,0.1-0.2,0.1c-0.1,0-0.1-0.1-0.2-0.1c0,0-0.1-0.5-0.4-0.9
		c0,0,0,0,0,0c0,0,0,0,0,0c-0.1,0.2-0.1,0.4-0.1,0.6c-0.1,0.7,0,1.2,0.3,1.7l0,0l0,0c0.1-0.1,0.4-0.2,0.7-0.4
		c0.2-0.2,0.4-0.5,0.6-0.8C28.8,30.3,28.9,30,29,29.5C29,29.5,29,29.5,29,29.5C29,29.5,29,29.5,29,29.5"/>
	<path fill="#2EA249" d="M28.3,28.5c0,0.1-0.1,0.1-0.2,0.1c-0.1,0-0.1-0.1-0.2-0.1c0,0-0.2-0.5-0.5-0.9c0,0,0,0,0,0c0,0,0,0,0,0
		c0,0.2-0.1,0.4-0.1,0.6c0,0.6,0.2,1.2,0.5,1.7h0c0,0,0,0,0,0c0.1-0.1,0.4-0.2,0.6-0.5c0.2-0.2,0.4-0.5,0.5-0.9
		c0.1-0.3,0.2-0.7,0.2-1.1c0,0,0,0,0,0c0,0,0,0,0,0C28.9,27.6,28.5,27.9,28.3,28.5"/>
	<path fill="#2EA249" d="M28.2,26.5c-0.1,0-0.1,0-0.2-0.1c0,0-0.2-0.4-0.5-0.8c0,0,0,0,0,0c0,0,0,0,0,0c0,0.5,0,1.5,0.6,2.2
		c0,0,0,0,0,0c0,0,0,0,0,0c0.1-0.1,0.3-0.2,0.6-0.6c0.2-0.3,0.3-0.6,0.4-0.9c0.1-0.4,0.1-0.7,0.1-1.2c0,0,0,0,0,0c0,0,0,0,0,0
		c-0.3,0.2-0.6,0.6-0.8,1.2C28.3,26.5,28.3,26.5,28.2,26.5"/>
	<path fill="#2EA249" d="M28.1,24.4c-0.1,0-0.1,0-0.2-0.1c0,0-0.2-0.4-0.6-0.7c0,0,0,0,0,0c0,0,0,0,0,0c0.1,0.6,0.2,1.6,0.8,2.1h0h0
		c0.1-0.1,0.3-0.3,0.5-0.6c0.2-0.3,0.3-0.6,0.3-1c0-0.4,0.1-0.7,0-1.2c0,0,0,0,0,0c0,0,0,0,0,0c-0.2,0.2-0.5,0.7-0.7,1.3
		C28.2,24.3,28.2,24.4,28.1,24.4"/>
	<path fill="#2EA249" d="M27.8,22.3c-0.1,0-0.1,0-0.2-0.1c0,0-0.3-0.4-0.6-0.7c0,0,0,0,0,0c0,0,0,0,0,0c0,0.2,0.1,0.4,0.1,0.6
		c0.1,0.4,0.3,1.1,0.8,1.5l0,0c0,0,0,0,0,0c0.1-0.1,0.3-0.3,0.5-0.6c0.1-0.3,0.2-0.6,0.3-1c0-0.4,0-0.7-0.1-1.2c0,0,0,0,0,0
		c0,0,0,0,0,0c-0.2,0.3-0.5,0.7-0.6,1.3C27.9,22.3,27.9,22.3,27.8,22.3"/>
	<path fill="#2EA249" d="M27.4,20.3c-0.1,0-0.2,0-0.2-0.1c0,0-0.3-0.4-0.7-0.6c0,0,0,0,0,0c0,0,0,0,0,0c0,0.2,0.1,0.4,0.2,0.6
		c0.2,0.6,0.6,1.1,1,1.4h0h0c0.1-0.1,0.3-0.3,0.4-0.7c0.1-0.3,0.2-0.7,0.1-1c0-0.4-0.1-0.7-0.2-1.1l0,0c0,0,0,0,0,0
		c-0.2,0.3-0.4,0.8-0.5,1.4C27.5,20.2,27.4,20.3,27.4,20.3"/>
	<path fill="#2EA249" d="M26.4,18.3c0,0-0.4-0.3-0.8-0.5c0,0,0,0,0,0c0,0,0,0,0,0c0.1,0.2,0.2,0.4,0.2,0.6c0.3,0.6,0.7,1,1.2,1.2h0
		c0,0,0,0,0,0c0.1-0.1,0.2-0.3,0.3-0.7c0.1-0.3,0.1-0.7,0-1c0-0.4-0.2-0.7-0.3-1.1c0,0,0,0,0,0c0,0,0,0,0,0
		c-0.2,0.3-0.3,0.8-0.3,1.4c0,0.1,0,0.1-0.1,0.2C26.6,18.3,26.5,18.3,26.4,18.3"/>
	<path fill="#2EA249" d="M24.7,16C24.7,16,24.6,16,24.7,16c0.1,0.2,0.2,0.4,0.3,0.6c0.4,0.5,0.8,0.9,1.4,1.1c0,0,0,0,0,0s0,0,0,0
		c0.1-0.1,0.2-0.4,0.2-0.7c0-0.3,0-0.7-0.1-1c-0.1-0.3-0.2-0.7-0.5-1.1c0,0,0,0,0,0c0,0,0,0,0,0c-0.1,0.3-0.2,0.8-0.1,1.4
		c0,0.1,0,0.1-0.1,0.2c-0.1,0-0.1,0-0.2,0C25.5,16.4,25.1,16.1,24.7,16C24.7,16,24.7,16,24.7,16"/>
	<path fill="#2EA249" d="M23.5,14.4C23.5,14.4,23.5,14.4,23.5,14.4c0.1,0.2,0.3,0.4,0.4,0.5c0.5,0.5,1,0.8,1.5,0.9l0,0c0,0,0,0,0,0
		c0-0.1,0.1-0.4,0.1-0.8c0-0.3-0.1-0.7-0.2-1c-0.1-0.3-0.4-0.6-0.6-1c0,0,0,0,0,0c0,0,0,0,0,0c-0.1,0.3-0.1,0.9,0.1,1.4
		c0,0.1,0,0.1-0.1,0.2c-0.1,0.1-0.1,0.1-0.2,0C24.4,14.7,24,14.4,23.5,14.4C23.5,14.4,23.5,14.4,23.5,14.4"/>
	<path fill="#2EA249" d="M23.2,13.1c0,0.1-0.1,0.1-0.2,0c0,0-0.4-0.2-0.9-0.2c0,0,0,0-0.1,0c0,0,0,0,0,0c0,0,0,0,0,0
		c0.2,0.2,0.3,0.3,0.5,0.5c0.4,0.3,0.9,0.6,1.5,0.6c0,0,0,0,0,0c0,0,0,0,0,0c0-0.1,0-0.4-0.1-0.8c-0.1-0.3-0.2-0.6-0.4-0.9
		c-0.2-0.3-0.4-0.6-0.8-0.8c0,0,0,0,0,0c0,0,0,0,0,0c0,0.3,0,0.8,0.3,1.4C23.3,13,23.3,13.1,23.2,13.1"/>
	<path fill="#2EA249" d="M7.2,39.1C7.3,39.1,7.3,39.1,7.2,39.1C7.3,39.1,7.3,39.1,7.2,39.1c0.2-0.9-0.4-1.7-0.8-2.1c0,0,0,0,0,0
		c0,0,0,0,0,0c-0.1,0.5,0.1,0.9,0.1,0.9c0,0.1,0,0.2-0.1,0.2c-0.1,0-0.1,0-0.2,0c-0.5-0.4-1.1-0.4-1.4-0.5c0,0,0,0,0,0c0,0,0,0,0,0
		c0.2,0.3,0.5,0.6,0.8,0.8c0.3,0.2,0.6,0.4,0.9,0.5C6.8,39.1,7.1,39.1,7.2,39.1"/>
	<path fill="#2EA249" d="M6,37.5L6,37.5C6,37.5,6,37.5,6,37.5c0.1-0.6-0.1-1.3-0.3-1.7c-0.1-0.2-0.2-0.4-0.3-0.5c0,0,0,0,0,0
		s0,0,0,0c-0.1,0.5-0.1,0.9-0.1,0.9c0,0.1,0,0.1-0.1,0.2c-0.1,0-0.1,0-0.2,0c-0.5-0.4-1-0.6-1.3-0.6c0,0,0,0,0,0c0,0,0,0,0,0
		c0.2,0.4,0.4,0.7,0.7,0.9C4.7,37,5,37.2,5.3,37.3C5.6,37.5,5.9,37.5,6,37.5"/>
	<path fill="#2EA249" d="M4.9,35.8L4.9,35.8C4.9,35.8,4.9,35.8,4.9,35.8c0.2-0.5,0.1-1.1-0.1-1.7c-0.1-0.2-0.2-0.4-0.3-0.6
		c0,0,0,0,0,0c0,0,0,0,0,0c-0.1,0.4-0.2,0.9-0.2,0.9c0,0.1,0,0.1-0.1,0.2c-0.1,0-0.1,0-0.2,0C3.7,34.2,3.3,34,3,33.9
		c-0.1,0-0.1,0-0.2-0.1h0c0,0,0,0,0,0c0.2,0.4,0.4,0.7,0.6,1c0.2,0.3,0.5,0.5,0.8,0.7C4.5,35.7,4.8,35.8,4.9,35.8"/>
	<path fill="#2EA249" d="M4,33.9L4,33.9C4,33.9,4,33.9,4,33.9c0.4-0.9,0.1-1.9-0.1-2.3c0,0,0,0,0,0h0c-0.2,0.4-0.3,0.9-0.3,0.9
		c0,0.1-0.1,0.1-0.1,0.1c-0.1,0-0.1,0-0.2-0.1c-0.3-0.4-0.7-0.7-1-0.8c-0.1,0-0.1,0-0.2-0.1c0,0,0,0,0,0c0,0,0,0,0,0
		C2.6,33.4,3.6,33.8,4,33.9"/>
	<path fill="#2EA249" d="M2.7,31.5c0.3,0.3,0.6,0.4,0.7,0.4h0c0,0,0,0,0,0c0.3-0.6,0.4-1.2,0.3-1.8c0-0.2-0.1-0.4-0.2-0.6h0
		c0,0,0,0,0,0c-0.3,0.4-0.4,0.9-0.4,0.9l0,0l0,0c0,0.1-0.1,0.1-0.1,0.1c-0.1,0-0.1,0-0.2-0.1c-0.4-0.5-0.8-0.8-1.1-1c0,0,0,0,0,0
		l0,0c0.1,0.4,0.2,0.8,0.4,1.1C2.2,31.1,2.4,31.3,2.7,31.5"/>
	<path fill="#2EA249" d="M2.8,30L2.8,30C2.8,30,2.8,30,2.8,30c0.7-0.9,0.6-1.8,0.5-2.3c0,0,0,0,0,0h0c-0.3,0.4-0.5,0.8-0.5,0.8
		c0,0.1-0.1,0.1-0.2,0.1h0c-0.1,0-0.1,0-0.2-0.1c-0.2-0.5-0.5-0.8-0.8-1c0,0-0.1-0.1-0.1-0.1c0,0,0,0,0,0c0,0,0,0,0,0
		C1.6,29.1,2.4,29.8,2.8,30"/>
	<path fill="#2EA249" d="M2.6,27.9L2.6,27.9C2.6,27.9,2.6,27.9,2.6,27.9c0.3-0.3,0.5-0.7,0.6-1.2c0.1-0.4,0-0.8,0-1.1c0,0,0,0,0,0
		c0,0,0,0,0,0c-0.4,0.3-0.5,0.8-0.5,0.8c0,0.1-0.1,0.1-0.2,0.1c-0.1,0-0.2,0-0.2-0.1c-0.2-0.5-0.4-0.9-0.6-1.1c0,0-0.1-0.1-0.1-0.1
		c0,0,0,0,0,0c0,0,0,0,0,0C1.5,26.9,2.3,27.7,2.6,27.9"/>
	<path fill="#2EA249" d="M2.1,25.1c0.2,0.3,0.4,0.5,0.5,0.6l0,0c0,0,0,0,0,0c0.4-0.4,0.6-0.9,0.8-1.5c0-0.2,0.1-0.4,0.1-0.6
		c0,0,0,0,0,0c0,0,0,0,0,0c-0.4,0.3-0.6,0.7-0.6,0.7c0,0.1-0.1,0.1-0.2,0.1c-0.1,0-0.1-0.1-0.2-0.1c-0.2-0.6-0.5-1-0.7-1.3
		c0,0,0,0,0,0c0,0,0,0,0,0c0,0.4,0,0.8,0,1.2C1.8,24.5,2,24.8,2.1,25.1"/>
	<path fill="#2EA249" d="M2.3,23c0.2,0.3,0.4,0.5,0.5,0.6c0,0,0,0,0,0c0,0,0,0,0,0c0.5-0.4,0.8-0.9,0.9-1.5c0-0.2,0.1-0.4,0.1-0.6
		c0,0,0,0,0,0c0,0,0,0,0,0c-0.4,0.3-0.7,0.7-0.7,0.7c0,0.1-0.1,0.1-0.2,0.1c-0.1,0-0.1-0.1-0.1-0.1c-0.1-0.6-0.4-1.1-0.6-1.3
		c0,0,0,0,0,0l0,0C2,21.3,2,21.7,2.1,22C2.1,22.4,2.2,22.7,2.3,23"/>
	<path fill="#2EA249" d="M3.1,21.6C3.1,21.6,3.1,21.6,3.1,21.6L3.1,21.6c0.6-0.3,0.9-0.8,1.1-1.4c0.1-0.2,0.1-0.4,0.1-0.6l0,0
		c0,0,0,0,0,0c-0.4,0.3-0.8,0.6-0.8,0.6c0,0.1-0.1,0.1-0.2,0.1c-0.1,0-0.1-0.1-0.1-0.2c-0.1-0.6-0.3-1.1-0.5-1.4c0,0,0,0,0,0
		c0,0,0,0,0,0c-0.1,0.4-0.2,0.8-0.2,1.1c0,0.4,0,0.7,0.2,1C2.8,21.3,3,21.5,3.1,21.6"/>
	<path fill="#2EA249" d="M3.6,19.6C3.6,19.6,3.6,19.6,3.6,19.6L3.6,19.6c0.6-0.3,1-0.7,1.3-1.3C5,18.1,5.1,18,5.1,17.8c0,0,0,0,0,0
		c0,0,0,0,0,0c-0.4,0.2-0.8,0.5-0.8,0.5c-0.1,0-0.1,0.1-0.2,0c-0.1,0-0.1-0.1-0.1-0.2c0-0.6-0.1-1.1-0.3-1.4c0,0,0,0,0,0h0
		c0,0,0,0,0,0c-0.2,0.4-0.3,0.8-0.3,1.1c-0.1,0.4,0,0.7,0,1C3.4,19.2,3.5,19.5,3.6,19.6"/>
	<path fill="#2EA249" d="M4.3,17.6C4.4,17.7,4.4,17.7,4.3,17.6L4.3,17.6c0.5-0.1,1-0.5,1.4-1C5.9,16.4,6,16.2,6.1,16c0,0,0,0,0,0
		c0,0,0,0,0,0c-0.5,0.1-0.9,0.4-0.9,0.4c-0.1,0-0.1,0.1-0.2,0c-0.1,0-0.1-0.1-0.1-0.2c0.1-0.6,0-1.1-0.1-1.4c0,0,0,0,0,0s0,0,0,0
		c-0.2,0.4-0.4,0.7-0.5,1.1c-0.1,0.3-0.1,0.7-0.1,1C4.2,17.3,4.3,17.5,4.3,17.6"/>
	<path fill="#2EA249" d="M5.4,15.8L5.4,15.8c0.9-0.1,1.6-0.9,1.9-1.4c0,0,0,0,0,0c0,0,0,0,0,0c-0.5,0-0.9,0.3-0.9,0.3
		c-0.1,0.1-0.1,0.1-0.2,0c-0.1,0-0.1-0.1-0.1-0.2c0.2-0.6,0.2-1.1,0.1-1.4c0,0,0,0,0,0c0,0,0,0,0,0C5.1,14.4,5.3,15.4,5.4,15.8
		C5.4,15.8,5.4,15.8,5.4,15.8"/>
	<path fill="#2EA249" d="M6.6,14.1C6.7,14.1,6.7,14.1,6.6,14.1c0.6,0,1.1-0.3,1.5-0.6c0.2-0.1,0.4-0.3,0.5-0.5c0,0,0,0,0,0
		c0,0,0,0,0,0c-0.5,0-0.9,0.2-0.9,0.2c-0.1,0-0.1,0-0.2-0.1c0-0.1-0.1-0.1,0-0.2c0.3-0.6,0.3-1.1,0.3-1.4c0,0,0,0,0,0c0,0,0,0,0,0
		c-0.3,0.3-0.6,0.6-0.8,0.9c-0.2,0.3-0.3,0.6-0.4,0.9C6.6,13.7,6.6,14,6.6,14.1C6.6,14.1,6.6,14.1,6.6,14.1"/>
	<path fill="#2EA249" d="M10.3,11.8c-0.5,0-0.9,0-0.9,0c-0.1,0-0.1,0-0.2-0.1c0-0.1,0-0.1,0-0.2c0.3-0.5,0.5-1,0.5-1.4c0,0,0,0,0,0
		c0,0,0,0,0,0c-1.4,1-1.5,2-1.5,2.5c0,0,0,0,0,0c0,0,0.1,0,0.1,0C9.1,12.7,9.9,12.1,10.3,11.8C10.3,11.8,10.3,11.8,10.3,11.8
		C10.3,11.8,10.3,11.8,10.3,11.8"/>
	<path fill="#2EA249" d="M12,10.9c-0.1,0-0.3-0.1-0.5-0.1c-0.3,0-0.5,0-0.5,0h0c-0.1,0-0.1,0-0.2-0.1c0-0.1,0-0.1,0.1-0.2
		c0.5-0.4,0.7-0.8,0.8-1c0,0,0,0,0,0c0,0,0,0,0,0c-1.6,0.5-2,1.5-2,1.9c0,0,0,0,0,0c0.2,0,0.4,0.1,0.6,0.1c0.3,0,0.7,0,1.1-0.2
		C11.7,11.1,11.9,11.1,12,10.9C12.1,11,12.1,10.9,12,10.9C12.1,10.9,12.1,10.9,12,10.9"/>
	<path fill="#2EA249" d="M14,10.4c-0.4-0.2-0.9-0.3-0.9-0.3C13,10.1,13,10,12.9,10c0-0.1,0-0.2,0.1-0.2c0.5-0.3,0.8-0.5,0.9-0.7
		c0,0,0,0,0,0l0,0c-0.8,0.1-1.5,0.4-1.9,0.8c-0.2,0.2-0.3,0.4-0.4,0.5c0,0,0,0,0,0c0.4,0.2,0.7,0.2,1.1,0.2c0.2,0,0.4,0,0.6-0.1
		C13.6,10.6,13.8,10.5,14,10.4C14,10.4,14,10.4,14,10.4L14,10.4"/>
	<path fill="#2EA249" d="M15.2,9.9c-0.1,0-0.1-0.1-0.1-0.2c0-0.1,0.1-0.1,0.1-0.2c0.5-0.2,0.9-0.4,1-0.5c0,0,0,0,0,0c0,0,0,0,0,0
		c-0.8-0.1-1.5,0.1-2,0.4c-0.3,0.2-0.4,0.3-0.5,0.5c0,0,0,0,0,0c0.5,0.4,1.3,0.5,1.8,0.5c0.2,0,0.3,0,0.5,0c0,0,0,0,0,0v0
		C15.7,10,15.3,9.9,15.2,9.9"/>
	<path fill="#2EA249" d="M17.4,10c-0.1,0-0.1-0.1-0.1-0.2c0-0.1,0.1-0.1,0.2-0.1c0.5-0.1,0.9-0.2,1.1-0.3c0,0,0,0,0,0c0,0,0,0,0,0
		c-0.8-0.2-1.5-0.2-2,0c-0.3,0.1-0.5,0.3-0.6,0.4v0c0.7,0.8,1.6,1,2.1,1l0,0c0,0,0,0,0,0c0,0,0,0,0,0C17.8,10.3,17.4,10,17.4,10"/>
	<path fill="#2EA249" d="M22.6,12.7C22.7,12.7,22.7,12.6,22.6,12.7c0-0.2,0-0.5-0.1-0.9c-0.2-0.6-0.7-1.1-1.5-1.3h0c0,0,0,0,0,0
		c0.1,0.3,0.3,0.7,0.6,1.1c0.1,0.1,0.1,0.1,0,0.2c0,0.1-0.1,0.1-0.2,0.1c0,0-0.5-0.1-0.9,0c0,0,0,0,0,0c0,0,0,0,0,0
		C20.9,12.2,21.8,12.7,22.6,12.7C22.6,12.7,22.6,12.7,22.6,12.7"/>
	<path fill="#2EA249" d="M21,11.3C21,11.3,21,11.3,21,11.3c-0.4-0.4-0.9-0.6-1.5-0.6c-0.2,0-0.4,0-0.7,0.1c0,0,0,0,0,0c0,0,0,0,0,0
		c0.5,0.4,1,0.6,1.5,0.6c0,0,0.1,0,0.1,0C20.6,11.4,20.8,11.4,21,11.3C21,11.3,21,11.3,21,11.3"/>
	<path fill="#2EA249" d="M18,10C18,10,18,10,18,10c0.3,0.2,0.7,0.3,1.1,0.3c0.2,0,0.4,0,0.6-0.1c0.3-0.1,0.6-0.2,0.8-0.2
		c0,0,0,0,0,0c0,0,0,0,0,0c-0.3-0.2-0.6-0.3-0.9-0.3c-0.3-0.1-0.6,0-1,0C18.4,9.8,18.1,9.9,18,10C18,10,18,10,18,10"/>
	<path fill="#0A93D2" d="M16.4,43.7c0-0.1,0-0.2,0-0.3c0-0.1,0-0.2,0-0.2c0.4-0.1,1-0.3,1.3-0.7c0.2-0.2,0.3-0.5,0.3-0.8
		c0-0.3-0.2-0.5-0.4-0.7c-0.6-0.4-1.9-0.1-2.2,0c-0.4-0.1-1.6-0.4-2.2,0c-0.2,0.2-0.4,0.4-0.4,0.7c0,0.3,0.1,0.6,0.2,0.8
		c0.3,0.4,1,0.6,1.4,0.7c0,0.1,0,0.2,0,0.2c0,0.1,0,0.2,0,0.3c-0.3,0.3-1.2,1.1-2.5,1.2c0,0.1,0.2,0.2,0.4,0.5
		c1.1-0.2,2-0.8,2.3-1.2c0,0,0.1,0.1,0.1,0.1c-0.1,0.3-0.4,1.1-1.8,1.5c0.2,0.1,0.5,0.2,0.8,0.2c1-0.4,1.3-1.1,1.4-1.5
		c0.1,0,0.1,0,0.2,0c0.1,0,0.1,0,0.2,0c0.1,0.4,0.5,1.1,1.4,1.5c0.3,0,0.6-0.1,0.8-0.2c-1.4-0.3-1.7-1.1-1.8-1.5
		c0,0,0.1-0.1,0.1-0.1c0.4,0.3,1.2,1,2.3,1.2c0.2-0.2,0.3-0.4,0.4-0.5C17.6,44.8,16.7,44,16.4,43.7"/>
	<path fill="#FFFFFF" d="M17.3,41.4c0.1,0.1,0.2,0.2,0.2,0.3c0,0.2,0,0.3-0.1,0.5c-0.1,0.2-0.4,0.3-0.6,0.4c0.1-0.3,0.1-0.5,0-0.8
		c-0.1-0.2-0.2-0.4-0.4-0.5C16.7,41.3,17.1,41.3,17.3,41.4"/>
	<path fill="#FFFFFF" d="M14.4,42c0.2-0.5,0.9-0.5,0.9-0.5l0,0c0,0,0.2,0,0.4,0.1c0.3,0.1,0.4,0.2,0.5,0.5c0.1,0.2-0.1,0.5-0.2,0.6
		c-0.2-0.2-0.4-0.3-0.7-0.3c-0.3,0-0.5,0.1-0.7,0.3C14.5,42.5,14.4,42.3,14.4,42"/>
	<path fill="#FFFFFF" d="M14,42.6c-0.3-0.1-0.5-0.2-0.6-0.4c-0.1-0.1-0.2-0.3-0.1-0.5c0-0.1,0.1-0.2,0.2-0.3
		c0.1-0.1,0.4-0.1,0.6-0.1c0.1,0,0.2,0,0.3,0c-0.2,0.1-0.3,0.3-0.4,0.5C13.9,42.1,13.9,42.4,14,42.6"/>
	<path fill="#FFFFFF" d="M14.8,43.5c0-0.3,0.3-0.6,0.6-0.6c0.3,0,0.6,0.3,0.6,0.6c0,0.3-0.3,0.6-0.6,0.6
		C15.1,44,14.8,43.8,14.8,43.5"/>
	<path fill="#FFFFFF" d="M18.5,45.4c-1.1-0.2-2-0.8-2.3-1.2c0,0-0.1,0.1-0.1,0.1c0.1,0.3,0.4,1.1,1.8,1.5
		C18.1,45.6,18.3,45.5,18.5,45.4"/>
	<path fill="#FFFFFF" d="M14.6,44.2c-0.4,0.3-1.2,1-2.3,1.2c0.2,0.1,0.4,0.3,0.6,0.4c1.4-0.3,1.7-1.2,1.8-1.5
		C14.7,44.2,14.6,44.2,14.6,44.2"/>
	<g>
		<path fill="#FFFFFF" d="M38.3,25.5h4c2.3,0,3.8,1.3,3.8,3.3v0c0,2.2-1.8,3.4-4,3.4h-2v3.2h-1.8V25.5z M42.1,30.7
			c1.3,0,2.2-0.7,2.2-1.8v0c0-1.2-0.8-1.8-2.2-1.8h-2v3.6H42.1z"/>
		<path fill="#FFFFFF" d="M47.5,27.9h1.7v1.7c0.5-1.1,1.3-1.9,2.7-1.8v1.8h-0.1c-1.5,0-2.6,1-2.6,3v2.9h-1.7V27.9z"/>
		<path fill="#FFFFFF" d="M52.9,31.7L52.9,31.7c0-2.2,1.5-4,3.7-4c2.4,0,3.6,1.9,3.6,4.1c0,0.2,0,0.3,0,0.5h-5.6
			c0.2,1.2,1.1,1.9,2.2,1.9c0.8,0,1.4-0.3,2-0.9l1,0.9c-0.7,0.9-1.7,1.4-3.1,1.4C54.6,35.6,52.9,34,52.9,31.7z M58.5,31.2
			c-0.1-1.1-0.8-2-1.9-2c-1.1,0-1.8,0.8-2,2H58.5z"/>
		<path fill="#FFFFFF" d="M61.2,34.5l0.8-1.2c0.8,0.6,1.7,0.9,2.5,0.9c0.7,0,1.2-0.3,1.2-0.8v0c0-0.6-0.8-0.8-1.7-1.1
			c-1.1-0.3-2.4-0.8-2.4-2.2v0c0-1.4,1.2-2.3,2.7-2.3c0.9,0,2,0.3,2.8,0.9l-0.7,1.2c-0.7-0.4-1.5-0.7-2.1-0.7
			c-0.7,0-1.1,0.3-1.1,0.8v0c0,0.5,0.8,0.8,1.7,1.1c1.1,0.3,2.3,0.8,2.3,2.2v0c0,1.6-1.2,2.4-2.8,2.4C63.3,35.6,62.2,35.2,61.2,34.5
			z"/>
		<path fill="#FFFFFF" d="M68.9,25.1h1.9v1.6h-1.9V25.1z M69,27.9h1.7v7.6H69V27.9z"/>
		<path fill="#FFFFFF" d="M72.4,31.7L72.4,31.7c0-2.5,1.7-4,3.5-4c1.2,0,2,0.6,2.6,1.3V25h1.7v10.5h-1.7v-1.3
			c-0.6,0.8-1.3,1.4-2.6,1.4C74.1,35.6,72.4,34.2,72.4,31.7z M78.5,31.7L78.5,31.7c0-1.5-1-2.4-2.2-2.4c-1.2,0-2.2,0.9-2.2,2.4v0
			c0,1.5,1,2.4,2.2,2.4C77.5,34.1,78.5,33.1,78.5,31.7z"/>
		<path fill="#FFFFFF" d="M81.9,31.7L81.9,31.7c0-2.2,1.5-4,3.7-4c2.4,0,3.6,1.9,3.6,4.1c0,0.2,0,0.3,0,0.5h-5.6
			c0.2,1.2,1.1,1.9,2.2,1.9c0.8,0,1.4-0.3,2-0.9l1,0.9c-0.7,0.9-1.7,1.4-3.1,1.4C83.5,35.6,81.9,34,81.9,31.7z M87.5,31.2
			c-0.1-1.1-0.8-2-1.9-2c-1.1,0-1.8,0.8-2,2H87.5z"/>
		<path fill="#FFFFFF" d="M90.8,27.9h1.7v1.2c0.5-0.7,1.2-1.3,2.4-1.3c1.7,0,2.7,1.1,2.7,2.9v4.8h-1.7v-4.3c0-1.2-0.6-1.8-1.6-1.8
			c-1,0-1.7,0.7-1.7,1.9v4.3h-1.7V27.9z"/>
		<path fill="#FFFFFF" d="M99.1,31.7L99.1,31.7c0-2.2,1.7-4,3.9-4c1.4,0,2.3,0.5,3,1.3l-1.1,1.2c-0.5-0.6-1.1-0.9-2-0.9
			c-1.3,0-2.2,1.1-2.2,2.4v0c0,1.3,0.9,2.4,2.3,2.4c0.8,0,1.4-0.4,2-0.9l1,1c-0.7,0.8-1.6,1.4-3.1,1.4
			C100.8,35.6,99.1,33.9,99.1,31.7z"/>
		<path fill="#FFFFFF" d="M107.6,25.1h1.9v1.6h-1.9V25.1z M107.7,27.9h1.7v7.6h-1.7V27.9z"/>
		<path fill="#FFFFFF" d="M116.1,35.5v-0.9c-0.5,0.6-1.3,1.1-2.4,1.1c-1.4,0-2.7-0.8-2.7-2.3v0c0-1.7,1.3-2.5,3.1-2.5
			c0.9,0,1.5,0.1,2.1,0.3V31c0-1-0.7-1.6-1.9-1.6c-0.8,0-1.5,0.2-2.2,0.5l-0.5-1.4c0.8-0.4,1.6-0.6,2.9-0.6c2.2,0,3.3,1.2,3.3,3.2
			v4.5H116.1z M116.2,32.3c-0.4-0.2-1.1-0.3-1.7-0.3c-1.1,0-1.7,0.4-1.7,1.2v0c0,0.7,0.6,1.1,1.5,1.1c1.1,0,2-0.6,2-1.6V32.3z"/>
		<path fill="#FFFFFF" d="M123.6,31.7L123.6,31.7c0-2.5,1.7-4,3.5-4c1.2,0,2,0.6,2.6,1.3V25h1.7v10.5h-1.7v-1.3
			c-0.6,0.8-1.3,1.4-2.6,1.4C125.3,35.6,123.6,34.2,123.6,31.7z M129.7,31.7L129.7,31.7c0-1.5-1-2.4-2.2-2.4c-1.2,0-2.2,0.9-2.2,2.4
			v0c0,1.5,1,2.4,2.2,2.4C128.7,34.1,129.7,33.1,129.7,31.7z"/>
		<path fill="#FFFFFF" d="M133,31.7L133,31.7c0-2.2,1.5-4,3.7-4c2.4,0,3.6,1.9,3.6,4.1c0,0.2,0,0.3,0,0.5h-5.6
			c0.2,1.2,1.1,1.9,2.2,1.9c0.8,0,1.4-0.3,2-0.9l1,0.9c-0.7,0.9-1.7,1.4-3.1,1.4C134.7,35.6,133,34,133,31.7z M138.6,31.2
			c-0.1-1.1-0.8-2-1.9-2c-1.1,0-1.8,0.8-2,2H138.6z"/>
		<path fill="#FFFFFF" d="M146.2,25h1.7v10.5h-1.7V25z"/>
		<path fill="#FFFFFF" d="M154.7,35.5v-0.9c-0.5,0.6-1.3,1.1-2.4,1.1c-1.4,0-2.7-0.8-2.7-2.3v0c0-1.7,1.3-2.5,3.1-2.5
			c0.9,0,1.5,0.1,2.1,0.3V31c0-1-0.7-1.6-1.9-1.6c-0.8,0-1.5,0.2-2.2,0.5l-0.5-1.4c0.8-0.4,1.6-0.6,2.9-0.6c2.2,0,3.3,1.2,3.3,3.2
			v4.5H154.7z M154.7,32.3c-0.4-0.2-1.1-0.3-1.7-0.3c-1.1,0-1.7,0.4-1.7,1.2v0c0,0.7,0.6,1.1,1.5,1.1c1.2,0,2-0.6,2-1.6V32.3z"/>
		<path fill="#FFFFFF" d="M162.7,25.5h1.6l5.4,6.9v-6.9h1.7v10H170l-5.5-7.1v7.1h-1.7V25.5z"/>
		<path fill="#FFFFFF" d="M178.3,35.5v-0.9c-0.5,0.6-1.3,1.1-2.5,1.1c-1.4,0-2.7-0.8-2.7-2.3v0c0-1.7,1.3-2.5,3.1-2.5
			c0.9,0,1.5,0.1,2.1,0.3V31c0-1-0.7-1.6-1.9-1.6c-0.9,0-1.5,0.2-2.2,0.5l-0.5-1.4c0.8-0.4,1.6-0.6,2.9-0.6c2.2,0,3.3,1.2,3.3,3.2
			v4.5H178.3z M178.3,32.3c-0.4-0.2-1.1-0.3-1.7-0.3c-1.1,0-1.7,0.4-1.7,1.2v0c0,0.7,0.6,1.1,1.5,1.1c1.2,0,2-0.6,2-1.6V32.3z"/>
		<path fill="#FFFFFF" d="M181.5,31.7L181.5,31.7c0-2.2,1.7-4,3.9-4c1.4,0,2.3,0.5,3,1.3l-1.1,1.2c-0.5-0.6-1.1-0.9-2-0.9
			c-1.3,0-2.2,1.1-2.2,2.4v0c0,1.3,0.9,2.4,2.3,2.4c0.8,0,1.4-0.4,2-0.9l1,1c-0.7,0.8-1.6,1.4-3.1,1.4
			C183.2,35.6,181.5,33.9,181.5,31.7z"/>
		<path fill="#FFFFFF" d="M190,25.1h1.9v1.6H190V25.1z M190.1,27.9h1.7v7.6h-1.7V27.9z"/>
		<path fill="#FFFFFF" d="M193.5,31.7L193.5,31.7c0-2.2,1.7-4,4-4c2.3,0,4,1.8,4,3.9v0c0,2.1-1.7,3.9-4.1,3.9
			C195.2,35.6,193.5,33.9,193.5,31.7z M199.8,31.7L199.8,31.7c0-1.4-1-2.4-2.3-2.4c-1.4,0-2.3,1.1-2.3,2.4v0c0,1.3,1,2.4,2.3,2.4
			C199,34.1,199.8,33,199.8,31.7z M198.3,24.6l1.6,0.7l-1.8,1.6h-1.3L198.3,24.6z"/>
		<path fill="#FFFFFF" d="M203.2,27.9h1.7v1.2c0.5-0.7,1.2-1.3,2.4-1.3c1.7,0,2.7,1.1,2.7,2.9v4.8h-1.7v-4.3c0-1.2-0.6-1.8-1.6-1.8
			c-1,0-1.7,0.7-1.7,1.9v4.3h-1.7V27.9z"/>
	</g>
</g>
</svg>
