<?xml version="1.0" encoding="utf-8"?>
<!-- Generator: Adobe Illustrator 21.0.0, SVG Export Plug-In . SVG Version: 6.00 Build 0)  -->
<svg version="1.1" baseProfile="tiny" id="Layer_1" xmlns="http://www.w3.org/2000/svg" xmlns:xlink="http://www.w3.org/1999/xlink"
	 x="0px" y="0px" viewBox="0 0 215 47" xml:space="preserve">
<g>
	<path fill="#FFFFFF" d="M12.8,1.1h7.7c4.5,0,7.2,2.6,7.2,6.5v0.1c0,4.3-3.4,6.6-7.6,6.6h-3.1v5.6h-4.1V1.1z M20.1,10.5
		c2.1,0,3.3-1.2,3.3-2.8V7.6c0-1.8-1.3-2.8-3.3-2.8h-3.2v5.7H20.1z"/>
	<path fill="#FFFFFF" d="M29.9,11.8V1.1H34v10.6c0,3,1.5,4.6,4,4.6c2.5,0,4-1.5,4-4.5V1.1h4.1v10.6c0,5.7-3.2,8.5-8.2,8.5
		C33,20.1,29.9,17.3,29.9,11.8"/>
	<polygon fill="#FFFFFF" points="50,1.1 64.1,1.1 64.1,4.7 54.1,4.7 54.1,8.5 62.9,8.5 62.9,12.2 54.1,12.2 54.1,16.1 64.2,16.1 
		64.2,19.8 50,19.8 	"/>
	<path fill="#FFFFFF" d="M67.4,1.1H76c2.4,0,4.2,0.7,5.5,1.9c1,1,1.6,2.5,1.6,4.3v0.1c0,3-1.6,4.9-4,5.8l4.6,6.7h-4.8l-4-6h-3.2v6
		h-4.1V1.1z M75.7,10.2c2,0,3.2-1.1,3.2-2.7v0c0-1.8-1.2-2.7-3.2-2.7h-4.1v5.4H75.7z"/>
	<polygon fill="#FFFFFF" points="90.7,4.9 85,4.9 85,1.1 100.5,1.1 100.5,4.9 94.8,4.9 94.8,19.8 90.7,19.8 	"/>
	<path fill="#FFFFFF" d="M101.9,10.5L101.9,10.5c0-5.4,4.2-9.7,10-9.7c5.8,0,9.9,4.3,9.9,9.6v0.1c0,5.3-4.2,9.7-10,9.7
		C106.1,20.1,101.9,15.8,101.9,10.5 M117.5,10.5L117.5,10.5c0-3.3-2.4-5.9-5.7-5.9c-3.3,0-5.6,2.6-5.6,5.8v0.1
		c0,3.2,2.4,5.9,5.7,5.9C115.2,16.3,117.5,13.7,117.5,10.5"/>
	<path fill="#FFFFFF" d="M12.8,27.8h8.7c2.1,0,3.8,0.6,4.9,1.7c0.9,0.9,1.3,1.9,1.3,3.2v0.1c0,2.1-1.1,3.3-2.5,4
		c2.2,0.8,3.5,2.1,3.5,4.6v0.1c0,3.4-2.8,5.1-7,5.1h-8.9V27.8z M20.6,35.4c1.8,0,3-0.6,3-2v-0.1c0-1.2-1-1.9-2.7-1.9h-4.1v4H20.6z
		 M21.7,43c1.8,0,2.9-0.6,2.9-2v-0.1c0-1.3-0.9-2-3.1-2h-4.8V43H21.7z"/>
	<path fill="#FFFFFF" d="M31.3,38.5V27.8h4.1v10.6c0,3,1.5,4.6,4,4.6c2.5,0,4-1.5,4-4.5V27.8h4.1v10.6c0,5.7-3.2,8.5-8.2,8.5
		C34.4,46.9,31.3,44.1,31.3,38.5"/>
	<polygon fill="#FFFFFF" points="51.4,27.8 65.5,27.8 65.5,31.5 55.5,31.5 55.5,35.3 64.3,35.3 64.3,39 55.5,39 55.5,42.9 
		65.7,42.9 65.7,46.6 51.4,46.6 	"/>
	<polygon fill="#FFFFFF" points="68.9,27.8 72.7,27.8 81.5,39.4 81.5,27.8 85.5,27.8 85.5,46.6 82,46.6 73,34.7 73,46.6 68.9,46.6 	
		"/>
	<path fill="#FFFFFF" d="M88.7,37.3L88.7,37.3c0-5.4,4.2-9.7,10-9.7c5.8,0,9.9,4.3,9.9,9.6v0.1c0,5.3-4.2,9.7-10,9.7
		C92.9,46.9,88.7,42.6,88.7,37.3 M104.3,37.3L104.3,37.3c0-3.3-2.4-5.9-5.7-5.9c-3.3,0-5.6,2.6-5.6,5.8v0.1c0,3.2,2.4,5.9,5.7,5.9
		C102,43.1,104.3,40.5,104.3,37.3"/>
	<path fill="#FFFFFF" d="M110.5,43.8l2.4-2.9c1.7,1.4,3.5,2.3,5.6,2.3c1.7,0,2.7-0.7,2.7-1.8v-0.1c0-1-0.6-1.6-3.8-2.4
		c-3.8-1-6.2-2-6.2-5.7v-0.1c0-3.4,2.7-5.7,6.6-5.7c2.7,0,5.1,0.9,7,2.4l-2.1,3.1c-1.7-1.1-3.3-1.8-4.9-1.8c-1.6,0-2.4,0.7-2.4,1.6
		v0c0,1.2,0.8,1.6,4,2.5c3.8,1,5.9,2.4,5.9,5.6v0c0,3.7-2.8,5.8-6.9,5.8C115.7,46.8,112.8,45.8,110.5,43.8"/>
	<path fill="#FFFFFF" d="M142.5,27.7h3.8l8,18.9H150l-1.7-4.2h-7.9l-1.7,4.2h-4.2L142.5,27.7z M146.8,38.7l-2.5-6.1l-2.5,6.1H146.8z
		"/>
	<rect x="156.9" y="27.8" fill="#FFFFFF" width="4.1" height="18.7"/>
	<path fill="#FFFFFF" d="M165.3,27.8h8.6c2.4,0,4.2,0.7,5.5,1.9c1,1,1.6,2.5,1.6,4.3v0.1c0,3-1.6,4.9-4,5.8l4.6,6.7h-4.8l-4-6h-3.2
		v6h-4.1V27.8z M173.5,36.9c2,0,3.2-1.1,3.2-2.6v-0.1c0-1.8-1.2-2.7-3.2-2.7h-4.1v5.4H173.5z"/>
	<polygon fill="#FFFFFF" points="184.1,27.8 198.3,27.8 198.3,31.5 188.2,31.5 188.2,35.3 197.1,35.3 197.1,39 188.2,39 188.2,42.9 
		198.4,42.9 198.4,46.6 184.1,46.6 	"/>
	<path fill="#FFFFFF" d="M200.1,43.8l2.4-2.9c1.7,1.4,3.4,2.3,5.6,2.3c1.7,0,2.7-0.7,2.7-1.8v-0.1c0-1-0.6-1.6-3.8-2.4
		c-3.8-1-6.2-2-6.2-5.7v-0.1c0-3.4,2.7-5.7,6.6-5.7c2.7,0,5.1,0.9,7,2.4l-2.1,3.1c-1.7-1.1-3.3-1.8-4.9-1.8c-1.6,0-2.4,0.7-2.4,1.6
		v0c0,1.2,0.8,1.6,4,2.5c3.8,1,5.9,2.4,5.9,5.6v0c0,3.7-2.8,5.8-6.9,5.8C205.2,46.8,202.4,45.8,200.1,43.8"/>
	<rect x="0" y="1.7" fill="#FFFFFF" width="2.3" height="44.9"/>
</g>
</svg>
