<svg xmlns="http://www.w3.org/2000/svg" width="36" height="36" viewBox="0 0 36 36">
  <g fill="#454440" fill-rule="evenodd">
    <path fill-rule="nonzero" d="M10.129,18.683 L11.556,18.683 L11.556,20.11 L12.982,20.11 L12.982,21.536 L5.853,21.536 L5.853,20.11 L7.279,20.11 L7.279,17.257 L10.132,17.257 L10.132,18.683 L10.129,18.683 Z M28.664,31.513 L30.088,31.513 L30.088,30.087 L28.664,30.087 L28.664,31.513 Z M11.555,18.683 L12.981,18.683 L12.981,17.257 L11.555,17.257 L11.555,18.683 Z M31.512,31.513 L32.939,31.513 L32.939,30.087 L31.512,30.087 L31.512,31.513 Z M14.408,32.938 L17.258,32.938 L17.258,31.512 L14.408,31.512 L14.408,32.938 Z M27.237,32.938 L27.237,31.512 L25.81,31.512 L25.81,32.938 L27.237,32.938 Z M21.535,32.938 L22.961,32.938 L22.961,30.086 L21.535,30.086 L21.535,32.938 Z M10.129,14.406 L10.129,15.832 L14.406,15.832 L14.406,14.406 L10.129,14.406 Z M8.705,15.831 L8.705,14.405 L5.852,14.405 L5.852,17.257 L7.278,17.257 L7.278,15.831 L8.705,15.831 Z M12.981,12.979 L3.002,12.979 L3.002,3.001 L12.981,3.001 L12.981,12.979 Z M11.555,4.427 L4.426,4.427 L4.426,11.554 L11.555,11.554 L11.555,4.427 Z M5.852,30.087 L10.128,30.087 L10.128,25.81 L5.852,25.81 L5.852,30.087 Z M20.108,28.66 L20.108,30.087 L21.536,30.087 L21.536,28.66 L20.108,28.66 Z M10.129,5.853 L5.853,5.853 L5.853,10.128 L10.129,10.128 L10.129,5.853 Z M32.938,3.001 L32.938,12.98 L22.959,12.98 L22.959,3.001 L32.938,3.001 Z M31.512,4.427 L24.385,4.427 L24.385,11.554 L31.512,11.554 L31.512,4.427 Z M3,22.957 L12.98,22.957 L12.98,32.936 L3,32.936 L3,22.957 Z M4.427,31.513 L11.556,31.513 L11.556,24.384 L4.427,24.384 L4.427,31.513 Z M4.427,14.406 L3,14.406 L3,21.535 L4.427,21.535 L4.427,14.406 Z M22.959,21.533 L22.959,22.957 L24.385,22.957 L24.385,21.533 L22.959,21.533 Z M18.682,27.236 L18.682,25.81 L17.257,25.81 L17.257,27.237 L14.407,27.237 L14.407,30.09 L17.257,30.09 L17.257,31.516 L18.682,31.516 L18.682,28.663 L20.109,28.663 L20.109,27.237 L18.682,27.237 L18.682,27.236 Z M14.408,8.704 L17.258,8.704 L17.258,7.276 L14.408,7.276 L14.408,8.704 Z M25.811,20.109 L28.665,20.109 L28.665,21.535 L30.09,21.535 L30.09,17.259 L28.665,17.259 L28.665,14.406 L27.237,14.406 L27.237,18.683 L22.963,18.683 L22.963,20.11 L24.389,20.11 L24.389,21.536 L25.815,21.536 L25.815,20.11 L25.811,20.11 L25.811,20.109 Z M27.237,24.384 L25.81,24.384 L25.81,22.957 L24.384,22.957 L24.384,25.81 L20.108,25.81 L20.108,27.237 L22.962,27.237 L22.962,30.09 L24.388,30.09 L24.388,31.516 L25.814,31.516 L25.814,28.663 L31.515,28.663 L31.515,27.237 L27.239,27.237 L27.239,24.384 L27.237,24.384 Z M27.237,24.384 L28.665,24.384 L28.665,21.533 L27.237,21.533 L27.237,24.384 Z M15.832,24.384 L15.832,22.957 L17.256,22.957 L17.256,21.533 L18.681,21.533 L18.681,20.107 L20.108,20.107 L20.108,17.254 L24.384,17.254 L24.384,14.401 L22.958,14.401 L22.958,15.827 L21.532,15.827 L21.532,10.125 L20.106,10.125 L20.106,7.272 L21.532,7.272 L21.532,3 L20.106,3 L20.106,5.852 L18.68,5.852 L18.68,3 L14.404,3 L14.404,5.852 L15.83,5.852 L15.83,4.426 L17.254,4.426 L17.254,7.276 L18.68,7.276 L18.68,11.553 L20.106,11.553 L20.106,12.979 L18.68,12.979 L18.68,15.831 L17.254,15.831 L17.254,12.979 L15.83,12.979 L15.83,11.554 L14.404,11.554 L14.404,14.406 L15.83,14.406 L15.83,15.832 L14.404,15.832 L14.404,20.11 L15.83,20.11 L15.83,17.257 L17.254,17.257 L17.254,20.11 L15.83,20.11 L15.83,21.536 L14.404,21.536 L14.404,25.81 L17.254,25.81 L17.254,24.384 L15.832,24.384 Z M31.512,25.81 L31.512,24.384 L28.662,24.384 L28.662,25.81 L31.512,25.81 Z M30.086,5.853 L25.811,5.853 L25.811,10.128 L30.086,10.128 L30.086,5.853 Z M18.682,24.384 L21.536,24.384 L21.536,22.957 L20.108,22.957 L20.108,21.533 L18.681,21.533 L18.681,24.384 L18.682,24.384 Z M21.535,21.533 L21.535,20.107 L20.107,20.107 L20.107,21.533 L21.535,21.533 Z M30.086,15.831 L32.939,15.831 L32.939,14.405 L30.086,14.405 L30.086,15.831 Z M31.512,27.236 L32.939,27.236 L32.939,25.81 L31.512,25.81 L31.512,27.236 Z M31.512,18.683 L32.939,18.683 L32.939,17.257 L31.512,17.257 L31.512,18.683 Z M18.682,11.554 L17.257,11.554 L17.257,12.98 L18.682,12.98 L18.682,11.554 Z"/>
    <path d="M35,6 L36,6 L36,0 L30,0 L30,1 L35,1 L35,6 Z"/>
    <path d="M5,6 L6,6 L6,0 L0,0 L0,1 L5,1 L5,6 Z" transform="rotate(-90 3 3)"/>
    <path d="M35,36 L36,36 L36,30 L30,30 L30,31 L35,31 L35,36 Z" transform="rotate(90 33 33)"/>
    <path d="M5,36 L6,36 L6,30 L0,30 L0,31 L5,31 L5,36 Z" transform="rotate(-180 3 33)"/>
  </g>
</svg>
